<svg xmlns="http://www.w3.org/2000/svg" width="655" height="405" viewBox="0 0 705.01 417.01"><defs><style>.cls-1{fill:#ebebeb}.cls-2{fill:#e0e0e0}.cls-3{fill:#fff}.cls-4{fill:#f5f5f5}.cls-5{fill:#fafafa}.cls-6{fill:#263238}.cls-7{fill:#ff725e}.cls-8{opacity:.3}.cls-9{fill:#455a64}.cls-10{fill:#ffbf9d}.cls-11{fill:#ff9a6c}</style></defs><g id="Layer_2" data-name="Layer 2"><g id="Background_Complete" data-name="Background Complete"><path class="cls-1" d="M330.64 27.21h87.46v228.92h-87.46z"/><path class="cls-2" d="M374.37 27.21h43.73v228.92h-43.73z"/><path class="cls-1" d="M340.62 0h30.88v27.21h-30.88z"/><path class="cls-2" d="M364.15 0h7.36v27.21h-7.36z"/><path class="cls-2" d="M323.35 25.62h97.31v1.59h-97.31z"/><path class="cls-3" d="M347.9 39.08h7.4v15.61h-7.4z"/><path class="cls-2" d="M374.37 60.81c0 .17-9.79.3-21.87.3s-21.86-.13-21.86-.3 9.79-.29 21.86-.29 21.87.13 21.87.29Z"/><path class="cls-4" d="M392.01 39.08h7.4v15.61h-7.4z"/><path class="cls-1" d="M418.48 60.81c0 .17-9.79.3-21.87.3s-21.86-.13-21.86-.3 9.79-.29 21.86-.29 21.87.13 21.87.29Z"/><path class="cls-4" d="M392.01 70.07h7.4v15.61h-7.4z"/><path class="cls-1" d="M418.48 91.81c0 .16-9.79.29-21.87.29s-21.86-.13-21.86-.29 9.79-.3 21.86-.3 21.87.13 21.87.3Z"/><path class="cls-4" d="M392.01 102h7.4v15.61h-7.4z"/><path class="cls-1" d="M418.48 123.73c0 .17-9.79.3-21.87.3s-21.86-.13-21.86-.3 9.79-.3 21.86-.3 21.87.14 21.87.3Z"/><path class="cls-4" d="M392.01 133.92h7.4v15.61h-7.4z"/><path class="cls-1" d="M418.48 155.66c0 .16-9.79.3-21.87.3s-21.86-.14-21.86-.3 9.79-.3 21.86-.3 21.87.13 21.87.3Z"/><path class="cls-4" d="M392.01 164.94h7.4v15.61h-7.4z"/><path class="cls-1" d="M418.48 186.67c0 .17-9.79.3-21.87.3s-21.86-.13-21.86-.3 9.79-.3 21.86-.3 21.87.14 21.87.3Z"/><path class="cls-4" d="M392.01 196.07h7.4v15.61h-7.4zM392.01 227.62h7.4v15.61h-7.4z"/><path class="cls-1" d="M418.48 217.81c0 .17-9.79.3-21.87.3s-21.86-.13-21.86-.3 9.79-.3 21.86-.3 21.87.14 21.87.3Z"/><path class="cls-3" d="M347.9 70.54h7.4v15.61h-7.4z"/><path class="cls-2" d="M374.37 92.28c0 .16-9.79.3-21.87.3s-21.86-.14-21.86-.3 9.79-.3 21.86-.3 21.87.13 21.87.3Z"/><path class="cls-3" d="M347.9 102.01h7.4v15.61h-7.4z"/><path class="cls-2" d="M374.37 123.74c0 .17-9.79.3-21.87.3s-21.86-.13-21.86-.3 9.79-.29 21.86-.29 21.87.13 21.87.29Z"/><path class="cls-3" d="M347.9 133.47h7.4v15.61h-7.4z"/><path class="cls-2" d="M374.37 155.21c0 .16-9.79.3-21.87.3s-21.86-.14-21.86-.3 9.79-.3 21.86-.3 21.87.09 21.87.3Z"/><path class="cls-3" d="M347.9 164.94h7.4v15.61h-7.4z"/><path class="cls-2" d="M374.37 186.67c0 .17-9.79.3-21.87.3s-21.86-.13-21.86-.3 9.79-.3 21.86-.3 21.87.14 21.87.3Z"/><path class="cls-3" d="M347.9 196.4h7.4v15.61h-7.4z"/><path class="cls-2" d="M374.37 218.14c0 .16-9.79.29-21.87.29s-21.86-.13-21.86-.29 9.79-.3 21.86-.3 21.87.16 21.87.3Z"/><path class="cls-3" d="M347.9 227.86h7.4v15.61h-7.4z"/><path class="cls-2" d="M249.79 85.58h89.86v170.55h-89.86z"/><path class="cls-1" d="M297.52 85.58h42.13v170.55h-42.13z"/><path class="cls-4" d="M268.63 101.63h8.08v19.63h-8.08zM268.63 178.46h8.08v19.63h-8.08zM297.52 129c0 .17-10.69.31-23.86.31s-23.87-.14-23.87-.31 10.68-.3 23.87-.3 23.86.1 23.86.3ZM268.63 140.34h8.08v19.63h-8.08zM297.52 167.67c0 .17-10.69.31-23.86.31s-23.87-.14-23.87-.31 10.68-.31 23.87-.31 23.86.14 23.86.31Z"/><path class="cls-2" d="M306.47 101.63h8.08v19.63h-8.08zM324 101.63h8.08v19.63H324zM306.47 138.88h8.08v19.63h-8.08zM324 138.88h8.08v19.63H324zM306.47 176.13h8.08v19.63h-8.08zM324 176.13h8.08v19.63H324zM243.04 81.46h103.37v4.27H243.04z"/><path class="cls-1" d="M340.28 86.13c0 .17-20.08.31-44.85.31s-44.86-.14-44.86-.31 20.08-.3 44.86-.3 44.85.17 44.85.3Z"/><path class="cls-4" d="M581.24 24.79h73v231.34h-73z"/><path class="cls-1" d="M617.74 24.79h36.5v230.7h-36.5z"/><path class="cls-4" d="M589.57 2.08h25.78v22.71h-25.78z"/><path class="cls-1" d="M609.21 2.08h6.14v22.71h-6.14z"/><path class="cls-2" d="M575.15 24.79v-1.33h81.22v1.33"/><path class="cls-5" d="M595.65 34.69h6.18v13.03h-6.18z"/><path class="cls-2" d="M617.74 52.83c0 .14-8.18.25-18.25.25s-18.25-.11-18.25-.25 8.17-.24 18.25-.24 18.25.11 18.25.24ZM632.46 34.69h6.18v13.03h-6.18zM654.55 52.83c0 .14-8.17.25-18.25.25s-18.25-.11-18.25-.25 8.17-.24 18.25-.24 18.25.11 18.25.24ZM632.46 60.56h6.18v13.03h-6.18zM654.55 78.7c0 .14-8.17.25-18.25.25s-18.25-.11-18.25-.25 8.17-.25 18.25-.25 18.25.11 18.25.25ZM632.46 87.21h6.18v13.03h-6.18zM654.55 105.35c0 .14-8.17.25-18.25.25s-18.25-.11-18.25-.25 8.17-.25 18.25-.25 18.25.11 18.25.25ZM632.46 113.85h6.18v13.03h-6.18zM654.55 132c0 .13-8.17.24-18.25.24s-18.25-.11-18.25-.24 8.17-.25 18.25-.25 18.25.11 18.25.25ZM632.46 139.74h6.18v13.03h-6.18zM654.55 157.88c0 .14-8.17.25-18.25.25s-18.25-.11-18.25-.25 8.17-.25 18.25-.25 18.25.11 18.25.25ZM632.46 165.73h6.18v13.03h-6.18zM632.46 192.06h6.18v13.03h-6.18zM654.55 183.87c0 .14-8.17.25-18.25.25s-18.25-.11-18.25-.25 8.17-.25 18.25-.25 18.25.11 18.25.25Z"/><path class="cls-5" d="M595.65 60.95h6.18v13.03h-6.18z"/><path class="cls-2" d="M617.74 79.1c0 .13-8.18.25-18.25.25s-18.25-.12-18.25-.25 8.17-.25 18.25-.25 18.25.15 18.25.25Z"/><path class="cls-5" d="M595.65 87.22h6.18v13.03h-6.18z"/><path class="cls-2" d="M617.74 105.36c0 .14-8.18.25-18.25.25s-18.25-.11-18.25-.25 8.17-.25 18.25-.25 18.25.11 18.25.25Z"/><path class="cls-5" d="M595.65 113.48h6.18v13.03h-6.18z"/><path class="cls-2" d="M617.74 131.62c0 .14-8.18.25-18.25.25s-18.25-.11-18.25-.25 8.17-.25 18.25-.25 18.25.11 18.25.25Z"/><path class="cls-5" d="M595.65 139.74h6.18v13.03h-6.18z"/><path class="cls-2" d="M617.74 157.88c0 .14-8.18.25-18.25.25s-18.25-.11-18.25-.25 8.17-.25 18.25-.25 18.25.11 18.25.25Z"/><path class="cls-5" d="M595.65 166h6.18v13.03h-6.18z"/><path class="cls-2" d="M617.74 184.14c0 .14-8.18.25-18.25.25s-18.25-.11-18.25-.25 8.17-.25 18.25-.25 18.25.11 18.25.25Z"/><path class="cls-5" d="M595.65 192.26h6.18v13.03h-6.18z"/><path class="cls-4" d="M90.16 47.68h65.77v208.45H90.16z"/><path class="cls-1" d="M123.05 47.68h32.89v207.88h-32.89z"/><path class="cls-4" d="M97.67 27.21h23.23v20.46H97.67z"/><path class="cls-1" d="M115.37 27.21h5.54v20.46h-5.54z"/><path class="cls-2" d="M84.68 47.68v-1.2h73.18v1.2"/><path class="cls-5" d="M103.15 56.6h5.57v11.74h-5.57z"/><path class="cls-2" d="M123.05 73c0 .12-7.36.22-16.44.22s-16.45-.1-16.45-.22 7.37-.23 16.45-.23 16.44.05 16.44.23ZM136.32 56.6h5.57v11.74h-5.57zM156.22 73c0 .12-7.36.22-16.44.22s-16.44-.1-16.44-.22 7.36-.23 16.44-.23 16.44.05 16.44.23ZM136.32 79.91h5.57v11.74h-5.57zM156.22 96.26c0 .12-7.36.22-16.44.22s-16.44-.1-16.44-.22 7.36-.26 16.44-.26 16.44.13 16.44.26ZM136.32 103.92h5.57v11.74h-5.57zM156.22 120.27c0 .12-7.36.22-16.44.22s-16.44-.1-16.44-.22 7.36-.23 16.44-.23 16.44.1 16.44.23ZM136.32 127.93h5.57v11.74h-5.57zM156.22 144.28c0 .12-7.36.22-16.44.22s-16.44-.1-16.44-.22 7.36-.23 16.44-.23 16.44.1 16.44.23ZM136.32 151.25h5.57v11.74h-5.57zM156.22 167.6c0 .12-7.36.22-16.44.22s-16.44-.1-16.44-.22 7.36-.22 16.44-.22 16.44.1 16.44.22ZM136.32 174.67h5.57v11.74h-5.57zM136.32 198.4h5.57v11.74h-5.57zM156.22 191c0 .12-7.36.22-16.44.22s-16.44-.1-16.44-.22 7.36-.22 16.44-.22 16.44.12 16.44.22Z"/><path class="cls-5" d="M103.15 80.26h5.57V92h-5.57z"/><path class="cls-2" d="M123.05 96.61c0 .12-7.36.23-16.44.23s-16.45-.11-16.45-.23 7.37-.22 16.45-.22 16.44.1 16.44.22Z"/><path class="cls-5" d="M103.15 103.93h5.57v11.74h-5.57z"/><path class="cls-2" d="M123.05 120.27c0 .13-7.36.23-16.44.23s-16.45-.1-16.45-.23 7.37-.22 16.45-.22 16.44.1 16.44.22Z"/><path class="cls-5" d="M103.15 127.59h5.57v11.74h-5.57z"/><path class="cls-2" d="M123.05 143.94c0 .12-7.36.22-16.44.22s-16.45-.1-16.45-.22 7.37-.23 16.45-.23 16.44.1 16.44.23Z"/><path class="cls-5" d="M103.15 151.25h5.57v11.74h-5.57z"/><path class="cls-2" d="M123.05 167.6c0 .12-7.36.22-16.44.22s-16.45-.1-16.45-.22 7.37-.22 16.45-.22 16.44.1 16.44.22Z"/><path class="cls-5" d="M103.15 174.92h5.57v11.74h-5.57z"/><path class="cls-2" d="M123.05 191.26c0 .13-7.36.23-16.44.23s-16.45-.1-16.45-.23 7.37-.22 16.45-.22 16.44.1 16.44.22Z"/><path class="cls-5" d="M103.15 198.58h5.57v11.74h-5.57z"/><path class="cls-1" d="M586.77 256.41H480.73l-.46-167.6h106.04l.46 167.6z"/><path class="cls-2" d="M533.29 88.81h53.02v167.6h-53.02z"/><path class="cls-1" d="M492.38 55.82h37.45v32.99h-37.45z"/><path class="cls-2" d="M520.9 55.82h8.92v32.99h-8.92z"/><path class="cls-2" d="M471.43 86.89h117.98v1.92H471.43z"/><path class="cls-3" d="M501.2 103.2h8.98v18.93h-8.98z"/><path class="cls-2" d="M533.29 129.56c0 .2-11.87.36-26.51.36s-26.51-.16-26.51-.36 11.87-.37 26.51-.37 26.51.17 26.51.37Z"/><path class="cls-4" d="M554.68 103.2h8.98v18.93h-8.98z"/><path class="cls-1" d="M586.77 129.56c0 .2-11.87.36-26.51.36s-26.51-.16-26.51-.36 11.87-.37 26.51-.37 26.51.17 26.51.37Z"/><path class="cls-4" d="M554.68 140.78h8.98v18.93h-8.98z"/><path class="cls-1" d="M586.77 167.13c0 .2-11.87.36-26.51.36s-26.51-.16-26.51-.36 11.87-.36 26.51-.36 26.51.16 26.51.36Z"/><path class="cls-4" d="M554.68 179.49h8.98v18.93h-8.98z"/><path class="cls-1" d="M586.77 205.84c0 .2-11.87.37-26.51.37s-26.51-.17-26.51-.37 11.87-.36 26.51-.36 26.51.17 26.51.36Z"/><path class="cls-4" d="M554.68 218.2h8.98v18.93h-8.98z"/><path class="cls-1" d="M586.77 244.56c0 .2-11.87.36-26.51.36s-26.51-.16-26.51-.36 11.87-.37 26.51-.37 26.51.17 26.51.37Z"/><path class="cls-3" d="M501.2 141.35h8.98v18.93h-8.98z"/><path class="cls-2" d="M533.29 167.71c0 .2-11.87.36-26.51.36s-26.51-.16-26.51-.36 11.87-.36 26.51-.36 26.51.16 26.51.36Z"/><path class="cls-3" d="M501.2 179.5h8.98v18.93h-8.98z"/><path class="cls-2" d="M533.29 205.86c0 .2-11.87.36-26.51.36s-26.51-.16-26.51-.36 11.87-.36 26.51-.36 26.51.16 26.51.36Z"/><path class="cls-3" d="M501.2 217.65h8.98v18.93h-8.98z"/><path class="cls-2" d="M533.29 244c0 .2-11.87.36-26.51.36s-26.51-.16-26.51-.36 11.87-.36 26.51-.36 26.51.17 26.51.36ZM624.33 256.13c0 .14-128.9.26-287.88.26s-287.91-.12-287.91-.26 128.88-.26 287.91-.26 287.88.13 287.88.26Z"/><path class="cls-4" d="M101.93 90.5c.47-3.41-4.33-6.21-7.94-6.5-1.72-.14-3.51.12-5.15-.44-3.53-1.24-4.94-5.8-8.39-7.26-2.58-1.09-5.55-.12-8 1.14s-5 2.84-7.76 3c-2.43.16-5.07-.74-7.19.44-1.59.89-2.42 2.71-3.88 3.79a9.27 9.27 0 0 1-5.06 1.37 14.34 14.34 0 0 0-5.22.85c-1.61.74-2.95 2.45-2.61 4.19ZM240.28 34.24c.47-3.4-4.34-6.2-7.95-6.5-1.72-.13-3.51.13-5.14-.44-3.54-1.23-4.95-5.8-8.4-7.25-2.58-1.09-5.54-.12-8 1.14s-5 2.84-7.77 3c-2.43.15-5.06-.75-7.19.44-1.58.88-2.41 2.71-3.87 3.78a9.22 9.22 0 0 1-5.06 1.38 14.06 14.06 0 0 0-5.22.85c-1.62.74-2.95 2.44-2.62 4.19ZM502.07 32.65c.47-3.4-4.34-6.2-7.95-6.49-1.72-.14-3.51.12-5.14-.45-3.54-1.23-5-5.79-8.4-7.25-2.57-1.09-5.54-.12-8 1.14s-5 2.84-7.77 3c-2.42.15-5.06-.75-7.19.44-1.58.88-2.41 2.71-3.87 3.79a9.29 9.29 0 0 1-5.06 1.37 14.27 14.27 0 0 0-5.22.85c-1.62.74-2.95 2.45-2.62 4.19Z"/></g><path class="cls-6" d="M696 416.5c0 .14-155.81.26-348 .26s-348-.12-348-.26 155.78-.26 348-.26 348 .11 348 .26Z" id="Floor"/><g id="Bus"><path class="cls-7" d="M40.21 315.7h117.05v76.09H40.21z"/><path class="cls-6" d="M157.29 391.81H40.18v-76.13h117.11Zm-117.06-.05h117v-76h-117Z"/><path d="M40.21 315.7h117.05v76.09H40.21z" class="cls-8"/><path class="cls-7" d="M652.72 124.16H35.61c-13.9 0-25.17 8.87-25.17 19.8V372.2c0 10.94 11.27 19.81 25.17 19.81h26.83a46.28 46.28 0 1 1 86 0h504.28c13.91 0 25.18-8.87 25.18-19.81V144c0-11-11.27-19.84-25.18-19.84Z"/><path class="cls-9" d="M296.75 142.41h247.06v148.44H296.75z"/><path class="cls-6" d="M10.87 142.66c0-.14 149.42-.26 333.71-.26s333.74.12 333.74.26-149.39.27-333.74.27-333.71-.12-333.71-.27Z"/><rect class="cls-7" x="346.65" y="114.52" width="177.59" height="14.71" rx="7.36"/><rect class="cls-7" x="40.25" y="114.52" width="86.46" height="14.71" rx="7.36"/><path d="M424.99 313.27h101.78v78.74H424.99z" class="cls-8"/><path class="cls-9" d="M679.87 366.41h-18.21a5.79 5.79 0 0 1-5.79-5.79 5.79 5.79 0 0 1 5.79-5.79h18.21a5.8 5.8 0 0 1 5.8 5.79 5.8 5.8 0 0 1-5.8 5.79Z"/><path class="cls-1" d="M677.9 351.06h-9.18a14.9 14.9 0 0 1-14.9-14.89 14.9 14.9 0 0 1 14.9-14.9h9.18Z"/><path class="cls-6" d="M677.9 351.06a4.83 4.83 0 0 1 0-.59v-1.66c0-1.48 0-3.56-.07-6.17 0-5.29-.07-12.69-.12-21.37l.25.24h-8.53a15 15 0 0 0-8.55 2.33A14.68 14.68 0 0 0 655 331a16.68 16.68 0 0 0-.64 2.16 15 15 0 0 0-.26 2.2 13.93 13.93 0 0 0 .38 4.25 14.91 14.91 0 0 0 3.81 6.86 15.16 15.16 0 0 0 5.83 3.63 16.31 16.31 0 0 0 5.65.78l4.34.05h3.78a.6.6 0 0 1-.23 0h-3.46l-4.41.06a16.52 16.52 0 0 1-5.79-.72 15.48 15.48 0 0 1-6-3.68 15.18 15.18 0 0 1-4-7 14.29 14.29 0 0 1-.42-4.4 16 16 0 0 1 .27-2.27 16.37 16.37 0 0 1 .66-2.24 15 15 0 0 1 6-7.44 15.39 15.39 0 0 1 8.83-2.41h8.77v.24c0 8.74-.09 16.2-.12 21.53 0 2.59 0 4.65-.07 6.12v1.61a4.89 4.89 0 0 1-.02.73Z"/><path class="cls-4" d="M52.14 358.54H35.25a6.46 6.46 0 0 1-6.45-6.46 6.45 6.45 0 0 1 6.45-6.45h16.89a6.45 6.45 0 0 1 6.45 6.45 6.46 6.46 0 0 1-6.45 6.46Z"/><path class="cls-6" d="M52.14 358.54a8.21 8.21 0 0 0 2.77-.75 6.47 6.47 0 0 0 2.48-2.21 6.37 6.37 0 0 0 1-4.22 6.26 6.26 0 0 0-2.72-4.36 6.12 6.12 0 0 0-2.74-1c-1-.1-2.11 0-3.21 0H35.26a6.2 6.2 0 0 0-4.87 10.05 6.34 6.34 0 0 0 2.46 1.89 7.14 7.14 0 0 0 2.91.49h5.5l8 .09h2.16a3.75 3.75 0 0 1 .76.06 6.42 6.42 0 0 1-.76 0l-2.16.05-8 .08h-5.5a7.48 7.48 0 0 1-3.09-.5 6.91 6.91 0 0 1-2.66-2 6.7 6.7 0 0 1 5.25-10.87h14.46c1.12 0 2.17-.05 3.27.07a6.62 6.62 0 0 1 4.64 10.28A6.43 6.43 0 0 1 55 358a6.26 6.26 0 0 1-2.1.57h-.57Z"/><path class="cls-7" d="M701.82 165.19h-3c0-13.7-8.06-24.84-18-24.84h-33v-3h33c11.6 0 21 12.49 21 27.84Z"/><rect class="cls-7" x="690.42" y="157.2" width="14.32" height="75" rx="3.41"/><path class="cls-6" d="M701.33 232.2a4.21 4.21 0 0 0 1.65-.49 3.37 3.37 0 0 0 1.38-1.53 6.59 6.59 0 0 0 .28-2.83c0-4.4 0-10.72-.08-18.51s0-17.13-.06-27.46v-20.47a3.22 3.22 0 0 0-2-3.22 4.89 4.89 0 0 0-2-.23h-6.64a3.15 3.15 0 0 0-3 2.31 9.14 9.14 0 0 0-.12 2.12v67.23a3.35 3.35 0 0 0 .78 1.81 3.29 3.29 0 0 0 1.51 1 5.35 5.35 0 0 0 1.68.15H701.46h-1.75l-5 .05a5.57 5.57 0 0 1-1.74-.15 3.45 3.45 0 0 1-1.64-1.06 3.56 3.56 0 0 1-.86-1.94v-12.81c0-7.83 0-17.13-.06-27.46V160.8a4.17 4.17 0 0 1 .13-1.16 3.68 3.68 0 0 1 3.55-2.7h6.64a5.2 5.2 0 0 1 2.25.28 3.73 3.73 0 0 1 2.27 3.69v20.47c0 10.33 0 19.63-.05 27.46s-.07 14.11-.09 18.51v1.55a3.52 3.52 0 0 1-.33 1.34 3.48 3.48 0 0 1-1.78 1.56 3.33 3.33 0 0 1-1.26.39 2.18 2.18 0 0 1-.41.01Z"/><path class="cls-9" d="m160.86 295.19-54.57-1.4-45.9-53.59H22.58v-97.54h138.28v152.53z"/><path class="cls-6" d="M160.86 295.19V284.06c0-7.22 0-17.79-.06-31.19 0-26.79-.07-64.89-.12-110.21l.23.24H22.58l.26-.26v97.54l-.24-.24H60.51l.07.07 45.85 53.64-.11-.05 40.19 1.11 10.68.32 2.75.08h.94-.88l-2.73-.05-10.64-.24-40.34-.82h-.07v-.06c-12.52-14.58-28.08-32.72-46-53.55l.16.07H22.34V142.43H161.1v.23C161.05 188 161 226.2 161 253c0 13.38 0 23.93-.06 31.14v10.33c0 .48-.08.72-.08.72Z"/><circle class="cls-6" cx="475.72" cy="375.76" r="40.27" transform="rotate(-89.07 475.732 375.76)"/><path class="cls-6" d="M435.46 375.08v.1a40.27 40.27 0 1 0 80.54 1.16v-.1Z"/><path class="cls-5" d="M447.45 375.35a28.27 28.27 0 1 0 28.68-27.86 28.27 28.27 0 0 0-28.68 27.86Z"/><path class="cls-2" d="M476.13 347.49a28.28 28.28 0 0 0-28.68 27.86l56.54.82a28.26 28.26 0 0 0-27.86-28.68Z"/><path class="cls-6" d="M458.5 375.51a17.22 17.22 0 1 0 17.47-17 17.22 17.22 0 0 0-17.47 17Z"/><circle class="cls-6" cx="105.28" cy="376.17" r="40.27" transform="rotate(-89.11 105.283 376.173)"/><path class="cls-6" d="M65 375.48v.11a40.27 40.27 0 1 0 80.54 1.16.33.33 0 0 1 0-.1Z"/><path class="cls-5" d="M77 375.76a28.27 28.27 0 1 0 28.68-27.86A28.27 28.27 0 0 0 77 375.76Z"/><path class="cls-2" d="M105.69 347.9A28.26 28.26 0 0 0 77 375.76l56.54.82a28.26 28.26 0 0 0-27.85-28.68Z"/><path class="cls-6" d="M88.06 375.92a17.22 17.22 0 1 0 17.47-17 17.22 17.22 0 0 0-17.47 17ZM22.58 389.15c-.14 0-.26-55.18-.26-123.24s.12-123.25.26-123.25.26 55.17.26 123.25-.11 123.24-.26 123.24ZM31.88 125.07c0-.15 111.67-.26 249.4-.26s249.43.11 249.43.26-111.65.26-249.43.26-249.4-.12-249.4-.26ZM296.75 308.35c-.15 0-.26-36.59-.26-81.72s.11-81.73.26-81.73.26 36.58.26 81.73-.12 81.72-.26 81.72ZM422.57 287.36c-.14 0-.26-31.9-.26-71.23s.12-71.23.26-71.23.26 31.89.26 71.23-.12 71.23-.26 71.23ZM338.64 271c-.12-.08 12.59-18.67 28.38-41.52s28.7-41.31 28.82-41.23-12.59 18.67-28.39 41.53-28.7 41.33-28.81 41.22ZM320.86 279.47c-.12-.09 13.51-19.34 30.44-43s30.75-42.8 30.86-42.71-13.51 19.33-30.44 43-30.72 42.79-30.86 42.71ZM437.13 247.64c-.11-.1 14.36-16.83 32.3-37.37s32.59-37.12 32.7-37-14.35 16.82-32.3 37.37-32.59 37.09-32.7 37ZM450.5 249.89c-.1-.09 14.1-15.56 31.72-34.54s32-34.29 32.1-34.19-14.1 15.56-31.72 34.54-31.99 34.3-32.1 34.19Z"/><path class="cls-7" d="M296.75 308.23v83.56H432a46.28 46.28 0 1 1 89.26-17.16c0 6.06-2 12-4.09 17.3l19.11.08v-83.78Z"/><path class="cls-3" d="M413.82 364h-16.88a6.45 6.45 0 0 1-6.45-6.45 6.46 6.46 0 0 1 6.45-6.46h16.88a6.46 6.46 0 0 1 6.46 6.46 6.46 6.46 0 0 1-6.46 6.45Z"/><path class="cls-6" d="M413.82 364a8 8 0 0 0 2.78-.74 6.37 6.37 0 0 0 3.45-6.44 6.24 6.24 0 0 0-5.43-5.44c-1-.11-2.12 0-3.22-.05h-14.46a6.21 6.21 0 0 0-4.86 10.06 6.46 6.46 0 0 0 2.45 1.88 7.18 7.18 0 0 0 2.91.5h5.5l8 .08 2.17.05a4.41 4.41 0 0 1 .75.05 3.39 3.39 0 0 1-.75 0l-2.17.05-8 .09h-5.5a7.45 7.45 0 0 1-3.08-.51 6.89 6.89 0 0 1-2.66-2 6.7 6.7 0 0 1 5.24-10.88h14.46c1.12 0 2.17-.05 3.27.08a6.63 6.63 0 0 1 5.74 5.85 6.53 6.53 0 0 1-3.72 6.66 6.49 6.49 0 0 1-2.11.57h-.56c-.12 0-.2.14-.2.14Z"/><path class="cls-7" d="M161.02 143.08h67.78v248.7h-67.78z"/><path class="cls-6" d="M228.8 391.79V372.9c0-12.22 0-30-.07-52.18 0-44.37-.07-106.51-.12-177.62l.26.26H161l.26-.26c0 101.49-.08 191.8-.1 248.71l-.16-.16 49.91.09H228.78h-17.77L161 392h-.16v-.16c0-56.91-.06-147.22-.1-248.71v-.26h68.29v.25c0 71.18-.08 133.38-.11 177.8 0 22.18-.06 39.91-.08 52.12v17.6c0 .81-.04 1.15-.04 1.15Z"/><rect class="cls-9" x="171.59" y="152.1" width="47.44" height="156.13" rx="12.47"/><path class="cls-6" d="m206.55 308.23 1-.08a13.14 13.14 0 0 0 2.85-.58 12.45 12.45 0 0 0 7.75-7.51 11.52 11.52 0 0 0 .74-3.74c.06-1.34 0-2.77 0-4.25v-33.21c0-17.45 0-38.23-.06-61.3v-31.51a15.94 15.94 0 0 0-.42-4.58 12.15 12.15 0 0 0-5.4-7.28 12 12 0 0 0-4.38-1.65 31.53 31.53 0 0 0-4.79-.18h-19.77a12.24 12.24 0 0 0-12.23 12.34v55.35c0 23.07 0 43.85-.06 61.3v15.34a13 13 0 0 0 .51 2.73 12.48 12.48 0 0 0 2.61 4.58 12.3 12.3 0 0 0 8.37 4.07c3 .08 5.68 0 8.12.06l11.23.05h3.92-3.92l-11.23.05c-2.45 0-5.15.06-8.13 0a12.55 12.55 0 0 1-8.58-4.12 12.8 12.8 0 0 1-2.69-4.67 13.72 13.72 0 0 1-.53-2.8c-.07-1 0-1.94-.05-2.92v-12.45c0-17.45 0-38.23-.05-61.3V164.7a12.73 12.73 0 0 1 12.74-12.86h19.71a32 32 0 0 1 4.88.19 12.55 12.55 0 0 1 4.56 1.72 12.73 12.73 0 0 1 5.63 7.59 16.76 16.76 0 0 1 .43 4.71v130.28a11.84 11.84 0 0 1-.78 3.8 12.66 12.66 0 0 1-3.74 5.26 12.46 12.46 0 0 1-4.17 2.28 12.89 12.89 0 0 1-2.87.54ZM296.91 391.79V372.9c0-12.22 0-30-.07-52.18 0-44.37-.07-106.51-.12-177.62l.25.26h-67.84l.26-.26c0 101.49-.07 191.8-.1 248.71l-.16-.16 49.92.09h17.86-17.77l-50 .09H229v-.16c0-56.91-.06-147.22-.1-248.71v-.26h68.3v.25c-.05 71.18-.09 133.38-.12 177.8 0 22.18-.05 39.91-.07 52.12v17.6c0 .81-.1 1.32-.1 1.32Z"/><rect class="cls-9" x="239.7" y="152.1" width="47.44" height="156.13" rx="12.2"/><path class="cls-6" d="M274.94 308.23a14.4 14.4 0 0 0 3.84-.68 11.75 11.75 0 0 0 4.07-2.35 12.12 12.12 0 0 0 3.54-5.29 12.29 12.29 0 0 0 .63-3.76v-37.51c0-17.48 0-38.28-.06-61.37V165.72a15.64 15.64 0 0 0-.44-4.59 12 12 0 0 0-5.56-7.17 11.86 11.86 0 0 0-4.43-1.49c-1.55-.18-3.19-.08-4.81-.11h-19.81a12 12 0 0 0-8.68 3.75 12.14 12.14 0 0 0-3.27 8.77v55.42c0 23.1 0 43.9-.05 61.38v12.46a16 16 0 0 0 .58 5.62 12.22 12.22 0 0 0 2.69 4.53 11.93 11.93 0 0 0 8.5 3.8h8.13l11.25.05h3.92-3.92l-11.25.05h-8.14a12.18 12.18 0 0 1-8.7-3.85 12.33 12.33 0 0 1-2.77-4.64c-.15-.44-.25-.9-.37-1.37s-.17-.94-.2-1.42c-.07-1-.05-1.94-.05-2.92v-12.46c0-17.48 0-38.28-.06-61.38v-55.42a12.7 12.7 0 0 1 3.41-9.12 12.47 12.47 0 0 1 9.06-3.92h19.74c1.63 0 3.23-.07 4.88.12a12.17 12.17 0 0 1 4.62 1.56 12.46 12.46 0 0 1 5.79 7.48 15.77 15.77 0 0 1 .45 4.72V197.12c0 23.09 0 43.89-.06 61.37V296a12.7 12.7 0 0 1-.67 3.83 12.22 12.22 0 0 1-3.63 5.34 11.73 11.73 0 0 1-4.14 2.33 12.51 12.51 0 0 1-2.87.56ZM97.42 235.78c-.12-.08 8.29-12.79 18.77-28.39s19.09-28.18 19.21-28.1-8.29 12.79-18.78 28.39-19.08 28.18-19.2 28.1ZM81.09 235.78s0-.08.12-.23l.39-.63 1.56-2.42c1.36-2.09 3.37-5.09 5.88-8.78 5-7.38 12.1-17.47 20-28.58s15-21.18 20.09-28.5c2.53-3.64 4.58-6.6 6-8.69l1.64-2.36.44-.6c.1-.14.15-.21.16-.2a.86.86 0 0 1-.12.23l-.39.63-1.56 2.42a641.52 641.52 0 0 1-5.88 8.78c-5 7.38-12.1 17.47-20 28.59s-15 21.16-20.09 28.49l-6 8.68c-.7 1-1.24 1.79-1.64 2.37l-.44.6a1.75 1.75 0 0 1-.16.2ZM378 350.12a1.65 1.65 0 0 1 .57 0 3 3 0 0 1 1.52.69 3.23 3.23 0 0 1 1.13 2.43v3.7c0 5.59.05 13.63.08 23.57v7.81a3.39 3.39 0 0 1-2.21 3.45 3.51 3.51 0 0 1-1.11.2H313.25a3.41 3.41 0 0 1-2.67-1.3 3.34 3.34 0 0 1-.65-1.37 6.67 6.67 0 0 1-.08-1.46v-34.59a3.36 3.36 0 0 1 3.39-3.37h32.5l23.56.09 6.41.05h2.23-2.23l-6.41.05-23.56.08h-32.5a2.91 2.91 0 0 0-2.05.83 2.94 2.94 0 0 0-.86 2.06v34.67a6.52 6.52 0 0 0 .07 1.35 2.83 2.83 0 0 0 .55 1.16 2.88 2.88 0 0 0 2.26 1.1H377a6.19 6.19 0 0 0 2.05-.17 3 3 0 0 0 1.95-3.06v-7.81c0-9.94.07-18 .09-23.57v-3.7a3.1 3.1 0 0 0-1-2.35 3 3 0 0 0-1.46-.72c-.42.18-.63.2-.63.18Z"/><path class="cls-6" d="M317.56 391.79c-.14 0-.26-9.31-.26-20.8s.12-20.8.26-20.8.26 9.31.26 20.8-.11 20.8-.26 20.8ZM325.41 391.79c-.14 0-.26-9.31-.26-20.8s.12-20.8.26-20.8.26 9.31.26 20.8-.11 20.8-.26 20.8ZM333.26 391.79c-.14 0-.26-9.31-.26-20.8s.12-20.8.26-20.8.26 9.31.26 20.8-.11 20.8-.26 20.8ZM341.11 391.79c-.14 0-.26-9.31-.26-20.8s.12-20.8.26-20.8.26 9.31.26 20.8-.12 20.8-.26 20.8ZM349 391.79c-.14 0-.26-9.31-.26-20.8s.12-20.8.26-20.8.26 9.31.26 20.8-.16 20.8-.26 20.8ZM356.81 391.79c-.15 0-.26-9.31-.26-20.8s.11-20.8.26-20.8.26 9.31.26 20.8-.07 20.8-.26 20.8ZM364.66 391.79c-.15 0-.26-9.31-.26-20.8s.11-20.8.26-20.8.26 9.31.26 20.8-.12 20.8-.26 20.8ZM372.51 391.79c-.15 0-.27-9.31-.27-20.8s.12-20.8.27-20.8.26 9.31.26 20.8-.12 20.8-.26 20.8ZM296.91 142.41h238.65v30.07H296.91zM22.24 142.41h138.62v30.07H22.24zM693.39 224c-.15 0-.26-13.09-.26-29.25s.11-29.25.26-29.25.26 13.1.26 29.25-.12 29.25-.26 29.25Z"/><path class="cls-3" d="M29.58 327.64c-.15 0-.26-16.83-.26-37.57s.11-37.57.26-37.57.26 16.82.26 37.57-.12 37.57-.26 37.57ZM187.15 238.64a11.83 11.83 0 0 1-1.61 3.05 11.19 11.19 0 0 1-2 2.78 11.59 11.59 0 0 1 1.6-3.05 11.32 11.32 0 0 1 2.01-2.78ZM206.11 224.78a2 2 0 0 1-.2.44l-.67 1.24c-.59 1.07-1.47 2.61-2.59 4.48-2.23 3.76-5.44 8.87-9.22 14.37s-7.41 10.32-10.12 13.75c-1.35 1.71-2.47 3.08-3.26 4l-.91 1.07a2.19 2.19 0 0 1-.35.35 2.27 2.27 0 0 1 .26-.41l.84-1.13 3.13-4.12c2.63-3.48 6.2-8.34 10-13.82s7-10.56 9.34-14.26c1.11-1.8 2-3.28 2.72-4.39l.76-1.19c.16-.26.25-.39.27-.38ZM271.22 205.19c.12.08-4.5 7.66-10.33 16.94s-10.64 16.74-10.76 16.66 4.5-7.65 10.32-16.94 10.64-16.73 10.77-16.66ZM279.33 211.08c.12.08-6.55 11.2-14.9 24.83s-15.23 24.64-15.35 24.57 6.55-11.2 14.9-24.84 15.23-24.64 15.35-24.56ZM165.26 298.46c-.14 0-.26-27.6-.26-61.64s.12-61.65.26-61.65.26 27.6.26 61.65-.11 61.64-.26 61.64ZM176.2 132.13c0 .15-32.33.26-72.21.26s-72.22-.11-72.22-.26 32.32-.26 72.22-.26 72.21.13 72.21.26ZM330.13 132.13c0 .15-12.09.26-27 .26s-27-.11-27-.26 12.09-.26 27-.26 27 .13 27 .26ZM304.59 368.49c-.14 0-.26-15-.26-33.56s.12-33.56.26-33.56.26 15 .26 33.56-.11 33.56-.26 33.56ZM231.65 379.43c-.15 0-.26-20.09-.26-44.86s.11-44.87.26-44.87.26 20.09.26 44.87-.12 44.86-.26 44.86ZM495 121.19c0 .14-31.85.26-71.12.26s-71.13-.12-71.13-.26 31.84-.26 71.13-.26 71.12.12 71.12.26ZM650.37 135.78c0 .14-25.47.26-56.89.26s-56.91-.12-56.91-.26 25.47-.26 56.91-.26 56.89.12 56.89.26Z"/><path class="cls-5" d="M543.81 142.45h96.2v249.34h-96.2z"/><path class="cls-6" d="M640 391.79v-18.72c0-12.11 0-29.76-.07-51.91 0-44.28-.07-106.58-.12-178.71l.25.25h-96.2l.26-.26c0 98.25-.06 186.91-.08 249.34l-.18-.18 70.47.1h25.77-25.59l-70.57.1h-.18v-.18c0-62.43 0-151.09-.08-249.34v-.26h96.71v.25c0 72.2-.09 134.56-.12 178.88 0 22.13 0 39.75-.07 51.85v17.41c0 .81-.2 1.38-.2 1.38Z"/><path class="cls-5" d="M677.89 302.79h-30.36V142.66h30.79l-.43 160.13z"/><path class="cls-6" d="M677.9 302.79v-46.07c0-28.66.12-68.66.19-114.06l.26.26h-30.82l.26-.27c0 67.39-.1 126.57-.12 160.13l-.14-.14 22.39.08h7.98-7.89l-22.48.08h-.14v-.14c0-33.56-.07-92.74-.12-160.13v-.26h31.31v.26c-.17 45.46-.32 85.52-.42 114.23-.07 14.31-.13 25.8-.16 33.71 0 3.94 0 7-.06 9.06v2.34c-.03.66-.04.92-.04.92Z"/><path class="cls-10" d="M626.69 230.47c0-.08 1 .24 3.74.34s7.87-.5 8.51-.45 8 .45 8 .45-1.7 1.58-3.1 1.4a25.38 25.38 0 0 0-4.1 0h-1l2.25 1.63-.64 7.28a.71.71 0 0 1-1.07-.19 3.67 3.67 0 0 1-.21-2.11l-1 3.21s-1 .4-1.58-.28a1.66 1.66 0 0 1-.12-1.58l-.27-2.84L634 235l-2.62.87 1.39 3.17s1.38 2.84 1.08 3.11-.61 1.25-1.4.2-1-2-1.85-2.4-5.35-3.17-6.12-5.4Z"/><path class="cls-7" d="M578.78 206.19a16.58 16.58 0 0 1 3.7 2.64c1.19 1.32 17.85 12.68 17.85 12.68l19.87 5.7 8.13 3.34-2.51 7.45-8.07-1.85s-9.4-1.06-15.09-1.59a21.76 21.76 0 0 1-8.86-2.56l-11.32-6.48-4.69-13.52Z"/><path class="cls-2" d="M610.91 293.84 599.1 322.5h-60.61v-28.66l71.89-.91"/><path class="cls-6" d="M558.07 261.77a20.6 20.6 0 0 0 13.67 13.32c10.94 3.25 46.21 1.44 46.21 1.44l5.19 35.83L640 310s-8-42.51-7.94-45.56c.07-4.75-2-8.12-7-8.11-3.05 0-37.26-2-37.26-2l-5.33-4-22.71 8.42Z"/><path class="cls-9" d="M609.39 287.36s3.88-.3 4-4.16v-6.48a4 4 0 0 0-4-4h-51.32l-4.1 2.18-1.13 6.06 2.08 5.24Z"/><path class="cls-6" d="M585.9 174.32c-1-1.18-2.27-2.3-2.59-3.83s.26-3-.43-4.24c-.85-1.54-3.11-1.75-4.15-3.18-.5-.69-.65-1.59-1.15-2.28a4.21 4.21 0 0 0-3.93-1.36c-1.45.15-2.85.66-4.3.76-2 .13-4.05-.53-6 0-2.11.63-3.41 2.49-4.79 4.29l-1.8 2.09a6.93 6.93 0 0 1-1.2 1 14.68 14.68 0 0 0-2.26 1.44 3.51 3.51 0 0 0 .21 5.08 3.76 3.76 0 0 0-2.56 3.69 10.51 10.51 0 0 0 .67 2.56 3.76 3.76 0 0 1 .06 2.6 1.66 1.66 0 0 1-2.17.93 4 4 0 0 0 2.16 2.65 2.37 2.37 0 0 1-1.6.7c1.6 3.8 6 5.81 10.11 5.85s8.08-1.52 11.91-3l11.12-2.86c1-.22 1.39-1.4 1.38-2.4a7.83 7.83 0 0 1 .09-3c.5-1.28 2-1.95 2.51-3.22.61-1.48-.27-3.09-1.29-4.27Z"/><path class="cls-6" d="M559.59 184.37a46.11 46.11 0 0 1-1.94-7.65 16.09 16.09 0 0 1 .68-7.8c.15-.37 1.35-2.88 1.75-2.84s-.47 2.37-.32 2.62a13.59 13.59 0 0 1 1.46 7.92 35.53 35.53 0 0 1-1.63 7.75"/><path class="cls-10" d="M559.4 174.31c-.17-6.6 3.54-12.21 10.15-12.2h.61a11.81 11.81 0 0 1 11.1 11.56c.11 5.73.17 12.06-.06 15.12-.46 6.32-6.85 6.92-6.85 6.92l.16 10.41-15.51-9.69Z"/><path class="cls-11" d="M574.35 195.75a15.34 15.34 0 0 1-8.1-2.94 8 8 0 0 0 8.07 5.08Z"/><path class="cls-6" d="M577.68 179.09a.91.91 0 0 1-.93.86.88.88 0 0 1-.88-.87.9.9 0 0 1 .93-.86.86.86 0 0 1 .88.87ZM579.75 176.26c-.12.11-.78-.44-1.75-.5s-1.71.39-1.81.26.08-.26.4-.47a2.54 2.54 0 0 1 1.46-.35 2.35 2.35 0 0 1 1.38.54c.29.26.38.47.32.52ZM569.32 178.75a.91.91 0 0 1-.93.86.88.88 0 0 1-.88-.88.92.92 0 0 1 .93-.86.87.87 0 0 1 .88.88ZM570.19 176.07c-.12.11-.77-.44-1.74-.49s-1.72.38-1.82.26.08-.26.41-.47a2.52 2.52 0 0 1 1.46-.36 2.44 2.44 0 0 1 1.38.54c.28.25.37.45.31.52ZM573.23 183.76a6.43 6.43 0 0 1 1.6-.19c.25 0 .49 0 .54-.21a1.29 1.29 0 0 0-.12-.75c-.2-.62-.41-1.26-.62-1.94a32.31 32.31 0 0 1-1.35-5 33.05 33.05 0 0 1 1.75 4.92c.21.68.4 1.33.59 1.95a1.47 1.47 0 0 1 .07 1 .63.63 0 0 1-.43.34 1.64 1.64 0 0 1-.43 0 6.42 6.42 0 0 1-1.6-.12ZM570.33 184.26c.15 0 .09 1.05.95 1.86s2 .76 2 .9-.26.19-.74.18a2.62 2.62 0 0 1-1.66-.7 2.27 2.27 0 0 1-.74-1.55c-.02-.45.11-.7.19-.69ZM570.38 172.12c-.11.26-1.08.07-2.23.14s-2.09.33-2.23.08.12-.36.51-.59a3.84 3.84 0 0 1 3.39-.17c.41.2.61.42.56.54ZM579.54 173c-.18.21-.84-.06-1.64-.12s-1.5.06-1.64-.18 0-.34.36-.53a2.31 2.31 0 0 1 1.37-.28 2.2 2.2 0 0 1 1.28.53c.27.24.35.47.27.58Z"/><path class="cls-10" d="M559.63 179c-.1-.05-4.27-1.55-4.39 2.79s4.25 3.57 4.26 3.44.13-6.23.13-6.23Z"/><path class="cls-11" d="M558.23 183.58s-.08 0-.21.11a.8.8 0 0 1-.57 0 1.87 1.87 0 0 1-.81-1.7 2.49 2.49 0 0 1 .24-1.08.88.88 0 0 1 .58-.56.38.38 0 0 1 .44.22c.06.12 0 .21.05.22s.1-.07.07-.25a.53.53 0 0 0-.17-.28.56.56 0 0 0-.41-.12 1 1 0 0 0-.81.65 2.6 2.6 0 0 0-.3 1.2 2 2 0 0 0 1 1.9.81.81 0 0 0 .7-.09c.18-.11.21-.21.2-.22Z"/><path class="cls-6" d="M578.6 166.47c.71-.37-1.36-2.69-3.07-3.51-2.58-1.23-6.55-2-9-1.41a10.46 10.46 0 0 0-6.85 4.77 16.94 16.94 0 0 0-2.09 8.67 5.13 5.13 0 0 0 .56 2.66c.58 1 1.73 1.6 1.66 2.92a1.81 1.81 0 0 0 .42 1.33c.78.86 1.77.09 2.23-.7a18.87 18.87 0 0 0 1.06-9.78c-.2-.73-.52-1.41-.68-2.15a2.59 2.59 0 0 1 .35-2.16 2.43 2.43 0 0 1 .36-.35 4.53 4.53 0 0 1 4.5-.77c2.43.92 6.57 2.29 7.68 1.48a6.67 6.67 0 0 0 2-1.93Z"/><path class="cls-6" d="M566.8 161a9.53 9.53 0 0 1 7.32.55 4.93 4.93 0 0 1 2.56 2.93 2.84 2.84 0 0 1-1.49 3.34l-.08.05a6.58 6.58 0 0 1-4.9-.36c-1.54-.57-2.9-1.55-4.45-2.11a8.79 8.79 0 0 0-5.15-.26 14.43 14.43 0 0 1 6.19-4.14Z"/><path class="cls-7" d="M558 197.29s-9.07 10.63-9 18.06c0 4 9.15 46.42 9.15 46.42l25.46-9.43a3.59 3.59 0 0 0 2.31-3.9l-3.36-22.25-3.7-20-3.82-2.8-.29-2.09-.5-1-14.92-6.3Z"/><path class="cls-6" d="m620.21 247.34 18.63 2.12 1.95-3.12-11.2-3.11-7.93.57-1.45 3.54zM654.68 230.1l-4.56 16.24h4.66l6.36-17.75-6.46 1.51z"/><path class="cls-6" d="M623.93 303.51s9-49.37 10.49-53.07 1.24-5.28 7.19-5.81 36.29 0 36.29 0v58.17l-37.89.56-.17 19.64-19.69-.93Z"/><path class="cls-9" d="M541.86 176.54s8.19.8 9.39 4c.88 2.33.48 11.54.2 16.38a3.2 3.2 0 0 1-3.19 3s4.2 3.69 4.6 5.14 8.19 48.4 7.39 56.7-3.2 12.3-3.2 12.3l-15.19.8Z"/><path class="cls-6" d="M561.25 273c-.12-.13 10.06-26.9 12-35.57s1.67-34.15 1.67-34.15c.82 0 3.54 1.9 4.32 2.93 0 0-.34 22.94-1.47 31.77s-9.86 37.23-9.86 37.23Z"/><path class="cls-9" d="M561.25 273a2.29 2.29 0 0 1 .45.12l1.29.4 5 1.58-.13.07c1.68-5.75 4.5-15.07 7.51-26.83.72-2.94 1.5-6 2-9.29s.68-6.7.89-10.25c.37-7.09.59-14.63.73-22.45v-.14.16a10.07 10.07 0 0 0-2-1.71c-.36-.25-.72-.48-1.09-.69a3.33 3.33 0 0 0-1.06-.43l.26-.26c0 10.05-.09 19.57-.85 28.17a53.53 53.53 0 0 1-.91 6.24c-.48 2-1.07 3.88-1.64 5.71-1.15 3.64-2.31 7-3.38 10-2.15 6.1-4 11-5.21 14.35-1.17 3.13-1.73 4.62-2 5.21a8.33 8.33 0 0 1 .41-1.38c.32-.91.78-2.22 1.36-3.9 1.2-3.38 3-8.29 5.07-14.4 1-3.05 2.18-6.41 3.31-10.05.56-1.82 1.14-3.71 1.6-5.68a51.81 51.81 0 0 0 .88-6.19c.73-8.56.85-18.09.8-28.12V203h.26a3.35 3.35 0 0 1 1.31.5c.39.21.77.46 1.14.71a10.47 10.47 0 0 1 2.08 1.83v.3c-.14 7.82-.36 15.37-.75 22.47-.22 3.55-.4 7-.92 10.29s-1.35 6.38-2.09 9.33c-3.06 11.76-6 21.05-7.73 26.79v.1h-.1l-5-1.69-1.27-.45a2.42 2.42 0 0 1-.22-.18Z"/><path class="cls-6" d="M561.92 273.72c0-.48 8.93-16.92 19.56-20.62l5.87 1.73s-17.52 12.5-19.42 20.36Z"/><path class="cls-9" d="M561.92 273.72a1.94 1.94 0 0 1 .44.07l1.19.25 4.41 1-.17.11a16 16 0 0 1 2.47-4.86 50.11 50.11 0 0 1 4.43-5.1 110 110 0 0 1 12.51-10.58l.08.47-.2-.06-5.67-1.67h.15a27 27 0 0 0-9.3 6.37 60.51 60.51 0 0 0-5.89 7 59.08 59.08 0 0 0-4.45 7 8.37 8.37 0 0 1 .94-2 54.12 54.12 0 0 1 3.24-5.18 56.18 56.18 0 0 1 5.84-7.12 26.86 26.86 0 0 1 9.45-6.55h.16l5.68 1.66.2.06.5.14-.42.32A113.36 113.36 0 0 0 575 265.51a51.13 51.13 0 0 0-4.45 5 16.5 16.5 0 0 0-2.5 4.7v.14h-.14l-4.44-1.17-1.15-.32a1.61 1.61 0 0 1-.4-.14Z"/><path class="cls-7" d="M557.63 203.26c-5.77 2.93-3.64 14.5-1.85 19.47 3.12 8.69 8 22.35 10.58 24.7 3.56 3.29 29 11.92 29 11.92l4.93-9.31-23.88-12.71s0-1.91-1-2.19-3.68-18.14-3.68-18.14-1.05-6.93-3.51-10.22"/><path class="cls-6" d="M568.22 206.81a8.73 8.73 0 0 1 1.19 1.93 28 28 0 0 1 2 6.12c.32 1.36.54 2.9.83 4.55s.6 3.46.94 5.38.73 4 1.19 6.12c.24 1.07.48 2.18.82 3.27a3.66 3.66 0 0 0 .31.74c-.06 0 .2.08.33.19a1.26 1.26 0 0 1 .35.38 3.86 3.86 0 0 1 .46 1.84l-.11-.18 23.89 12.66.22.12-.12.23-4.92 9.31-.11.2-.21-.07-4.6-1.6c-4.85-1.72-9.56-3.46-14.07-5.27-2.25-.91-4.44-1.84-6.56-2.84l-1.56-.79c-.51-.3-1-.56-1.51-.89l-.71-.53a7.45 7.45 0 0 1-.6-.65 14 14 0 0 1-.92-1.44 57.34 57.34 0 0 1-2.8-5.91c-.81-1.95-1.56-3.86-2.27-5.71-1.41-3.71-2.65-7.19-3.78-10.36a34.82 34.82 0 0 1-2-8.88 19.81 19.81 0 0 1 .37-6.86 7.32 7.32 0 0 1 2.13-3.76 1.82 1.82 0 0 1 .52-.4l.4-.25a1.35 1.35 0 0 1 .34-.19 1.85 1.85 0 0 1-.31.23l-.39.27a2 2 0 0 0-.49.42 7.24 7.24 0 0 0-2 3.73 19.83 19.83 0 0 0-.28 6.78 35.67 35.67 0 0 0 2.08 8.79c1.15 3.16 2.42 6.63 3.84 10.32.72 1.85 1.47 3.75 2.29 5.69a57.59 57.59 0 0 0 2.79 5.85 6.13 6.13 0 0 0 2.1 2.46c.46.31 1 .57 1.46.86l1.55.77c2.1 1 4.29 1.92 6.53 2.82 4.5 1.8 9.21 3.53 14.06 5.25l4.62 1.6-.31.13c1.69-3.2 3.36-6.33 4.93-9.31l.11.34-23.86-12.74-.1-.06v-.12a3.62 3.62 0 0 0-.38-1.63 1.25 1.25 0 0 0-.24-.27c-.09-.1-.17 0-.42-.27a4.13 4.13 0 0 1-.37-.86c-.34-1.13-.57-2.24-.81-3.32-.45-2.16-.82-4.21-1.15-6.13l-.9-5.4c-.27-1.66-.46-3.19-.77-4.54a30.1 30.1 0 0 0-1.9-6.13 13.81 13.81 0 0 0-.78-1.48 5.57 5.57 0 0 1-.34-.51Z"/><path class="cls-6" d="M541.86 174.29s-4.64.89-5.79 4.51 0 115 0 115h74.84s1.22-8.56-6.78-10.22-35.59-.52-35.59-.52-9.72-9.45-11.89-11.37-3.07-3.39-6.13-2.85-5.37.93-5.37.93v-37.28l-3.29-9.58Z"/><path class="cls-6" d="M600.61 260.16s-3.22 1.27-2.93 4.58a15.33 15.33 0 0 0 1.45 5.47l5 51.33h4.31l-4.75-53.19v-6.31Z"/><path class="cls-9" d="M600.61 260.16a1.32 1.32 0 0 1 .2.1l.6.34 2.36 1.37v6.34c1 11.11 2.82 30.7 4.88 53.18v.29h-4.83v-.24c-2-21.31-3.82-40-4.9-51.34v.06a15.54 15.54 0 0 1-1.34-4.71 6.68 6.68 0 0 1 0-2 4.27 4.27 0 0 1 .62-1.55 5 5 0 0 1 1.65-1.54 4.48 4.48 0 0 1 .52-.27c.12-.05.19-.07.19-.06l-.17.1a5 5 0 0 0-.5.3 5.14 5.14 0 0 0-1.56 1.56 4.25 4.25 0 0 0-.56 1.49 6.71 6.71 0 0 0 .07 1.93 15.32 15.32 0 0 0 1.37 4.6c1.13 11.34 3 30 5.12 51.32l-.25-.23h4.31l-.26.28c-2-22.49-3.66-42.09-4.63-53.2 0-2.58 0-4.7.07-6.31v.07l-2.29-1.43-.59-.38a.71.71 0 0 1-.08-.07Z"/><path class="cls-6" d="M574.28 200.55a3.31 3.31 0 0 1 0 1.19 9.67 9.67 0 0 1-1 3l-.09.17-.18-.07c-1.58-.63-3.54-1.45-5.61-2.41a99.627 99.627 0 0 1-6.59-3.35 16.05 16.05 0 0 1-2.6-1.61 18.56 18.56 0 0 1 2.79 1.33c1.69.83 4 2 6.64 3.2 2.07.95 4 1.81 5.55 2.48l-.26.1a15.14 15.14 0 0 0 1.35-4.03ZM580.5 211.92a4.83 4.83 0 0 1 .21 1.16c.11.85.25 1.9.41 3.15.35 2.65.88 6.32 1.5 10.36s1.18 7.6 1.6 10.37q.27 1.86.45 3.15a5.57 5.57 0 0 1 .09 1.16 4.54 4.54 0 0 1-.29-1.13c-.17-.85-.37-1.89-.61-3.12-.49-2.64-1.13-6.3-1.75-10.35s-1.1-7.73-1.36-10.4c-.13-1.34-.21-2.42-.24-3.18a5.57 5.57 0 0 1-.01-1.17Z"/><rect class="cls-9" x="609.76" y="232.22" width="69.19" height="4.71" rx="2.13" transform="rotate(-23.63 644.444 234.576)"/><path class="cls-10" d="M612.93 263.18c0-.59-1.77-7.14-2.36-7.89s-10.87-3.7-10.82-3.79l-3.43 6.12 1.16 1a14.92 14.92 0 0 0 3.36 2.21l.92 3.32s.17 1.77.25 2.44 2.1.5 2.1.5c.42.59 2 .17 2 .17h1.61c-.67 1.34.5 1.59.5 1.59l1.85-.84c2.77-.42 1.51-2.18 1.51-2.18a11.36 11.36 0 0 0 1.35-2.65Z"/><path class="cls-11" d="M604.37 267c-.15 0 .12-1.67 0-3.69s-.52-3.64-.37-3.68a9.93 9.93 0 0 1 .36 7.37ZM607.37 267c-.08 0 .06-.44.15-1.1a8.57 8.57 0 0 0-.06-2.6c-.39-2-1-3.62-.87-3.68s.28.35.56 1a11.37 11.37 0 0 1 .82 2.61 6.33 6.33 0 0 1-.09 2.76c-.19.7-.46 1.06-.51 1.01Z"/><path class="cls-11" d="M607.49 267.35c0-.07.43-.31 1.1-.76a2.53 2.53 0 0 0 1.32-2.45 20.43 20.43 0 0 1-.45-4.55 20 20 0 0 1 1 4.49 2.44 2.44 0 0 1-.47 1.85 3.46 3.46 0 0 1-1.18 1c-.81.37-1.29.48-1.32.42Z"/><path class="cls-11" d="M611.39 266.19c-.06.13-.45.07-.91.06s-.84 0-.9-.1.33-.43.91-.42.97.33.9.46ZM604 259.39c-.14-.05 0-.67-.39-1.31s-.9-.92-.86-1.06.21-.09.49 0a1.71 1.71 0 0 1 .83.8 1.74 1.74 0 0 1 .19 1.13c-.09.32-.26.46-.26.44ZM606.82 258.41c-.15 0-.2-.51-.45-1s-.58-.89-.5-1 .66.11 1 .79.13 1.25-.05 1.21ZM609.09 258.65c-.15 0-.19-.61-.44-1.28s-.57-1.16-.46-1.27.68.3.95 1.1.09 1.48-.05 1.45Z"/><path class="cls-7" d="M536.29 142.66h7.51V392h-7.51z"/><path class="cls-6" d="M543.81 392V372.44c0-12.57 0-30.77-.08-53.29 0-45-.06-107.3-.1-176.5l.26.27h-7.52l.26-.27c-.09 121.4-.18 223.05-.2 249.34l-.06-.06H543.89L542 392h-5.76c0-26.29-.1-127.94-.2-249.34v-.26h8v.26c0 69.27-.08 131.64-.11 176.7 0 22.49-.06 40.66-.08 53.22v18.16c0 .85-.04 1.26-.04 1.26ZM638.63 359.45c0 .14-21.12.26-47.16.26s-47.18-.12-47.18-.26 21.12-.26 47.18-.26 47.16.11 47.16.26ZM638.92 377.8c0 .14-21.18.26-47.31.26s-47.32-.12-47.32-.26 21.18-.26 47.32-.26 47.31.11 47.31.26Z"/><path class="cls-6" d="M640 322.5c0 .14-21.57.26-48.16.26s-48.17-.12-48.17-.26 21.56-.26 48.17-.26 48.16.11 48.16.26ZM639.15 341.67c0 .15-21.22.26-47.38.26s-47.39-.11-47.39-.26 21.21-.26 47.39-.26 47.38.12 47.38.26Z"/><path class="cls-9" d="M639.15 245a6.84 6.84 0 0 1-.8.21 4.7 4.7 0 0 0-1.85 1.38c-1.31 1.58-2.42 4.42-3 8-1.37 7.31-3.26 17.31-5.34 28.36s-4.08 21-5.49 28.33c-.72 3.58-1.31 6.5-1.72 8.57-.21 1-.37 1.75-.5 2.33a4.27 4.27 0 0 1-.21.8 6.3 6.3 0 0 1 .11-.82l.4-2.35c.38-2.08.91-5 1.56-8.6 1.37-7.3 3.26-17.3 5.34-28.36s4.08-21 5.49-28.32c.67-3.65 1.85-6.51 3.25-8.1a4.55 4.55 0 0 1 2-1.35c.27-.06.48-.08.62-.1Z"/><path class="cls-6" d="m557.33 280.01 4.06-6.52 5.7 1.48-3.24 7.39-6.52-2.35z"/><path class="cls-7" d="M640.01 142.66h7.51v248.7h-7.51z"/><path class="cls-6" d="M647.53 391.37V371.86c0-12.54 0-30.69-.08-53.15 0-44.89-.06-107-.1-176l.26.27H640l.26-.27c-.1 121.07-.18 222.46-.2 248.71l-.06-.06H647.52 640v-.06c0-26.25-.1-127.64-.2-248.71v-.26h8v.26c0 69.1-.08 131.3-.11 176.24 0 22.44-.06 40.57-.08 53.1v18.11c0 .85-.08 1.33-.08 1.33Z"/><path class="cls-7" d="m567.33 276.36-6-2a1.58 1.58 0 0 1-1-2 1.57 1.57 0 0 1 2-1l6 2a1.56 1.56 0 0 1 1 2 1.58 1.58 0 0 1-2 1Z"/><path class="cls-6" d="M651.1 210.76c-.12-.07 3.94-7.1 9.07-15.7s9.39-15.51 9.52-15.44-3.94 7.1-9.07 15.71-9.39 15.51-9.52 15.43ZM651.36 198.61a8.8 8.8 0 0 1 .82-1.28l2.35-3.38c2-2.86 4.65-6.85 7.44-11.36s5.16-8.69 6.83-11.74c.8-1.46 1.46-2.68 2-3.61a7.44 7.44 0 0 1 .77-1.3 9 9 0 0 1-.59 1.39c-.41.88-1 2.15-1.84 3.69-1.59 3.1-3.92 7.32-6.71 11.84s-5.53 8.49-7.58 11.3c-1 1.41-1.88 2.53-2.49 3.29a8 8 0 0 1-1 1.16ZM536.29 306.22c-.14 0-.26-36.59-.26-81.72s.12-81.72.26-81.72.26 36.58.26 81.72-.11 81.72-.26 81.72Z"/></g><g id="Plant"><path class="cls-9" d="M254.86 370.74a8.66 8.66 0 0 1 4.49 5.09 15.23 15.23 0 0 1 .6 6.88c-.51 4.47-3.05 9-5.78 12.54-3.76-3.28-4.63-9-4.89-11.94-.4-4.63 1.68-13.26 5.58-12.57"/><path class="cls-6" d="M254.17 395.29c-2.72-2.37-4.41-6.51-4.89-12-.3-3.41.8-9.55 3.26-11.81a2.7 2.7 0 0 1 2.35-.78 8.62 8.62 0 0 1 4.5 5.1 15.05 15.05 0 0 1 .6 6.89c-.3 2.68-1.55 7-5.78 12.56Zm.26-24.56a2.76 2.76 0 0 0-1.88.81c-2.45 2.24-3.54 8.37-3.24 11.77.47 5.42 2.15 9.54 4.86 11.91 4.2-5.51 5.45-9.84 5.75-12.51a15.15 15.15 0 0 0-.59-6.88 8.59 8.59 0 0 0-4.47-5.06 2.15 2.15 0 0 0-.43-.04Z"/><path class="cls-9" d="M258.54 402.63a7.38 7.38 0 0 1 2.39-7 9.78 9.78 0 0 1 7.23-2.26 4.15 4.15 0 0 1 3.18 1.42 3.16 3.16 0 0 1 0 3.2 6.34 6.34 0 0 1-2.37 2.34c-3.25 2-6.78 3.42-10.47 2.32"/><path class="cls-6" d="M261.2 403a9.28 9.28 0 0 1-2.67-.39 6.78 6.78 0 0 1 .24-3.82 7.69 7.69 0 0 1 2.15-3.22 9.77 9.77 0 0 1 7.25-2.27 4 4 0 0 1 3.2 1.44 3.16 3.16 0 0 1 .05 3.22 6.44 6.44 0 0 1-2.38 2.35c-2.92 1.84-5.47 2.69-7.84 2.69Zm-2.64-.43c3.12.92 6.44.19 10.44-2.32a6.33 6.33 0 0 0 2.36-2.33 3.07 3.07 0 0 0-.05-3.17 4 4 0 0 0-3.15-1.42h-.84a9.59 9.59 0 0 0-6.38 2.28 7.78 7.78 0 0 0-2.13 3.21 6.73 6.73 0 0 0-.25 3.79Z"/><path class="cls-6" d="M253.72 416.32a4.64 4.64 0 0 1 .13-.91c.12-.65.27-1.48.46-2.48a25.73 25.73 0 0 1 2.56-7.93 15.91 15.91 0 0 1 5.68-6 11 11 0 0 1 2.32-1c.29-.09.52-.13.67-.17a.72.72 0 0 1 .24 0 16.91 16.91 0 0 0-3.11 1.42 16.4 16.4 0 0 0-5.52 6 27.79 27.79 0 0 0-2.62 7.81c-.23 1-.41 1.88-.55 2.46a5.38 5.38 0 0 1-.26.8Z"/><path class="cls-6" d="M253.86 377.45a1.6 1.6 0 0 1 0 .4c0 .3 0 .68.07 1.15.06 1 .12 2.45.17 4.24.12 3.58.21 8.53.19 14s-.16 10.41-.31 14c-.07 1.79-.14 3.24-.21 4.24 0 .47-.05.85-.07 1.15a1.87 1.87 0 0 1-.05.4 1.79 1.79 0 0 1 0-.4v-1.16c0-1 .06-2.48.1-4.24.09-3.57.19-8.52.21-14s0-10.41-.09-14c0-1.76 0-3.2-.06-4.24v-1.16a1.79 1.79 0 0 1 .05-.38Z"/><path class="cls-9" d="M252 405.35a17.26 17.26 0 0 0-9.43-12.66c-1.26-.6-2.9-1-3.93-.06s-.81 2.62-.3 3.92a14.76 14.76 0 0 0 13.57 9.16"/><path class="cls-6" d="M251.79 405.74a14.79 14.79 0 0 1-13.44-9.18c-.32-.82-.93-2.84.3-3.95.5-.45 1.67-1 4 .06a17.26 17.26 0 0 1 9.45 12.67h-.1a17.23 17.23 0 0 0-9.42-12.64c-2.26-1.08-3.42-.5-3.91-.06s-1.23 1.47-.29 3.89a14.73 14.73 0 0 0 13.4 9.15h.15v.05Z"/><path class="cls-6" d="M243.21 396.93a4.15 4.15 0 0 1 .8.35 7.5 7.5 0 0 1 .9.48 11.57 11.57 0 0 1 1.15.72 12.89 12.89 0 0 1 1.31 1 15.93 15.93 0 0 1 1.4 1.27 17.61 17.61 0 0 1 4.41 7.37 18.52 18.52 0 0 1 .44 1.83 15.36 15.36 0 0 1 .22 1.63c.07.5 0 1 .07 1.36s0 .74 0 1a5.26 5.26 0 0 1-.1.86c-.07 0 .05-1.24-.17-3.21a12.63 12.63 0 0 0-.26-1.6 17.82 17.82 0 0 0-.46-1.81 19.79 19.79 0 0 0-1.74-3.87 20.61 20.61 0 0 0-2.6-3.38c-.46-.46-.9-.9-1.35-1.27s-.88-.71-1.28-1c-1.64-1.15-2.77-1.66-2.74-1.73Z"/></g><g id="Signal"><path class="cls-2" d="M356.99 209.44h5.86V416.5h-5.86z"/><path class="cls-6" d="M362.85 416.5v-16.22c0-10.45 0-25.56-.08-44.26 0-37.38-.06-89.11-.1-146.54l.26.26H357l.26-.26c0 101.09-.09 185.71-.2 207.06l-.06-.06h5.86-5.92v-.06c-.12-21.35-.2-106-.2-207.06v-.26h6.38v.26c-.05 57.51-.08 109.3-.11 146.73 0 18.68-.06 33.77-.08 44.21v15.1c0 .71-.08 1.1-.08 1.1Z"/><rect class="cls-3" x="330.55" y="148.48" width="56.31" height="66.28" rx="3.94"/><path class="cls-6" d="M382.92 214.76s.21 0 .61-.08a3.94 3.94 0 0 0 1.63-.69 3.84 3.84 0 0 0 1.53-2.36 8.63 8.63 0 0 0 .07-1.86v-2.13c0-6 0-14.78-.08-25.55v-30a3.72 3.72 0 0 0-3.11-3.32 7.62 7.62 0 0 0-1.28-.05H334.56a3.7 3.7 0 0 0-2.59 1.06 3.63 3.63 0 0 0-1.09 2.57v58.07a3.89 3.89 0 0 0 .49 2.19 3.76 3.76 0 0 0 1.61 1.5 4.41 4.41 0 0 0 2.17.37h12.96l25.55.08 6.95.05h2.42-2.42l-6.95.05-25.55.08H335a4.71 4.71 0 0 1-2.35-.41 4.12 4.12 0 0 1-1.8-1.66 4.34 4.34 0 0 1-.56-2.41V152.12a4.18 4.18 0 0 1 4.2-4.14H382.22a9.07 9.07 0 0 1 1.36.06 4.17 4.17 0 0 1 3.49 3.75v30.04c0 10.77-.06 19.5-.08 25.55v2.13a8.93 8.93 0 0 1-.1 1.89 4 4 0 0 1-1.62 2.42 3.78 3.78 0 0 1-1.69.65 2.35 2.35 0 0 1-.66.29Z"/><rect class="cls-7" x="343.47" y="161.76" width="31.59" height="39.99" rx="1.45"/><rect class="cls-7" x="341.15" y="169.46" width="4.8" height="11.63" rx="1.91"/><rect class="cls-7" x="372.74" y="169.46" width="4.8" height="11.63" rx="1.91"/><path class="cls-3" d="M347.22 169.46h24.09v15.07h-24.09z"/><circle class="cls-3" cx="368.15" cy="191.01" r="3.15"/><circle class="cls-3" cx="350.52" cy="191.01" r="3.15"/><path class="cls-7" d="M345.63 197.44h5.63v6.45a2.24 2.24 0 0 1-2.24 2.24h-1.15a2.24 2.24 0 0 1-2.24-2.24v-6.45ZM366.43 197.44h5.63v6.45a2.24 2.24 0 0 1-2.24 2.24h-1.15a2.24 2.24 0 0 1-2.24-2.24v-6.45Z"/><path class="cls-3" d="M353.2 165.06h12.14v1.34H353.2z"/></g></g></svg>
