<svg xmlns="http://www.w3.org/2000/svg" width="1220" viewBox="0 0 577 431.46"><defs><style>.cls-1{fill:#d7eef4}.cls-2{fill:#bbe5fb}.cls-3{fill:#1873aa}.cls-4{opacity:.38}.cls-5{fill:#76bdf3}.cls-6{fill:#369edd}.cls-7{fill:#a1ddf7}.cls-8{fill:#eefaff}.cls-10{opacity:.44}.cls-11{fill:#1063a0}.cls-12{fill:#fff}.cls-13{fill:#c9e9f4}.cls-14{fill:#86cbf7}</style></defs><g id="Layer_2" data-name="Layer 2"><g id="Ñëîé_2" data-name="Ñëîé 2"><path class="cls-1" d="M81.35 56.46h81.01v368.73H81.35z"/><path class="cls-1" d="M90.54 32.16h62.65v302.66H90.54z"/><path class="cls-1" d="M97.81 12.36h48.11v289.49H97.81z"/><path class="cls-1" d="M105.01 0h33.21v256.16h-33.21zM168.07 425.19h68.87V51.46L168.07 95.8v329.39z"/><path class="cls-1" transform="rotate(180 308.145 271.255)" d="M271.29 117.32H345v307.86h-73.71z"/><path class="cls-1" d="M271.29 45.91h37.62l18.48 25.53v45.88h-56.1V45.91z"/><path class="cls-1" transform="rotate(180 288.285 37.835)" d="M271.29 14.89h33.99v45.88h-33.99z"/><path class="cls-1" transform="rotate(180 270.015 271.255)" d="M253.51 118.32h33.01v305.86h-33.01z"/><path class="cls-1" d="M355.8 7.64h20.05v418.65H355.8z"/><path class="cls-1" d="M375.21 33.03h19.88v388.48h-19.88z"/><path class="cls-1" d="M394.2 52.01h19.88v372.97H394.2z"/><path class="cls-1" d="M413.18 70.24h19.88v355.6h-19.88z"/><path class="cls-1" d="M432.16 87.61h20.4v338.68h-20.4zM457 142.7h52.29v285.62H457z"/><path class="cls-1" d="M464.44 134.29h37.42v14.62h-37.42zM34.84 187.59h52.29v240.74H34.84z"/><path class="cls-1" d="m83.57 177.1-37.44-22.22.03 22.22v14.62h37.41V177.1z"/></g><g id="_2" data-name="2"><path class="cls-2" d="M512.66 245.55h10v179.41h-10z"/><path class="cls-3" d="M523.66 426h-12V244.55h12Zm-10-2h8V246.55h-8Z"/><g class="cls-4"><path class="cls-5" d="M512.66 284.36h9.55v9.55h-9.55z"/></g><g class="cls-4"><path class="cls-5" d="M512.66 248.23h9.55v9.55h-9.55z"/></g><path class="cls-6" d="M428.04 402.77h20.34v12.88h-20.34z"/><path class="cls-3" d="M449.37 416.64H427v-14.87h22.33Zm-20.33-2h18.33v-10.87H429Z"/><path class="cls-6" d="M428.04 190.53h20.34v12.88h-20.34z"/><path class="cls-3" d="M449.37 204.4H427v-14.87h22.33Zm-20.33-2h18.33v-10.87H429Z"/><path class="cls-7" d="M91.72 327.58H30.26A28.56 28.56 0 0 1 58.82 299h4.35a28.57 28.57 0 0 1 28.55 28.55Z"/><path class="cls-3" d="M92.72 328.58H29.26v-1A29.36 29.36 0 0 1 34.33 311a29.74 29.74 0 0 1 3.59-4.35 29.35 29.35 0 0 1 20.9-8.65h4.35a29.57 29.57 0 0 1 29.55 29.55Zm-61.44-2H90.7A27.56 27.56 0 0 0 63.17 300h-4.35a27.55 27.55 0 0 0-27.54 26.55Z"/><path class="cls-2" d="M87.29 312.32a28.58 28.58 0 0 1-23.66 12.56h-4.35a28.49 28.49 0 0 1-24.12-13.29A28.58 28.58 0 0 1 58.82 299h4.35a28.48 28.48 0 0 1 24.12 13.32Z"/><path class="cls-3" d="M67.18 320.58H54.8a15.23 15.23 0 0 1-15.31-14.86v-.48l.37-.32a29.59 29.59 0 0 1 19-6.89h4.35a29.59 29.59 0 0 1 19 6.89l.37.32v.48a15.24 15.24 0 0 1-15.4 14.86Zm-25.67-14.44a13.24 13.24 0 0 0 13.29 12.44h12.38a13.25 13.25 0 0 0 13.3-12.44A27.61 27.61 0 0 0 63.17 300h-4.35a27.61 27.61 0 0 0-17.31 6.14Z"/><path class="cls-6" d="M128.47 402.77h20.34v12.88h-20.34z"/><path class="cls-3" d="M149.81 416.64h-22.34v-14.87h22.34Zm-20.34-2h18.34v-10.87h-18.34Z"/><path class="cls-8" d="M148.81 222.54H432.9v132.25H148.81z"/><path class="cls-3" d="M433.9 355.78H147.81V221.54H433.9Zm-284.09-2H431.9V223.54H149.81Z"/><path class="cls-5" d="M179.72 219.79h17.17v127.79h-17.17z"/><path class="cls-3" d="M197.9 348.58h-19.18V218.79h19.18Zm-17.18-2h15.18V220.79h-15.18Z"/><path class="cls-5" d="M277.93 219.79h17.17v127.79h-17.17z"/><path class="cls-3" d="M296.11 348.58h-19.18V218.79h19.18Zm-17.18-2h15.18V220.79h-15.18Z"/><path class="cls-5" d="M375.71 219.79h17.17v127.79h-17.17z"/><path class="cls-3" d="M393.89 348.58h-19.18V218.79h19.18Zm-17.18-2h15.18V220.79h-15.18Z"/><path class="cls-5" d="M288 30.68a41.81 41.81 0 0 0-41.81 41.81c0 19.52 29.87 60.56 39.12 72.79a3.37 3.37 0 0 0 5.38 0c9.25-12.23 39.12-53.27 39.12-72.79A41.81 41.81 0 0 0 288 30.68Zm0 61.74a24.64 24.64 0 1 1 24.64-24.64A24.64 24.64 0 0 1 288 92.42Z"/><path class="cls-3" d="M288 147.62a4.34 4.34 0 0 1-3.49-1.74c-9.22-12.19-39.32-53.53-39.32-73.39a42.81 42.81 0 1 1 85.62 0c0 19.86-30.1 61.2-39.32 73.39a4.34 4.34 0 0 1-3.49 1.74Zm0-115.94a40.86 40.86 0 0 0-40.81 40.81c0 19.24 29.79 60.12 38.92 72.19a2.34 2.34 0 0 0 1.89.94 2.34 2.34 0 0 0 1.89-.94c9.13-12.07 38.92-52.95 38.92-72.19A40.86 40.86 0 0 0 288 31.68Zm0 61.74a25.64 25.64 0 1 1 25.64-25.64A25.67 25.67 0 0 1 288 93.42Zm0-49.28a23.64 23.64 0 1 0 23.64 23.64A23.66 23.66 0 0 0 288 44.14Z"/><path class="cls-5" d="M139.88 161h296.24a29.48 29.48 0 0 1 29.48 29.48H110.4A29.48 29.48 0 0 1 139.88 161Z"/><path class="cls-8" d="M416.05 183.21H160.51a22.16 22.16 0 0 1-22.16-22.16h299.86a22.16 22.16 0 0 1-22.16 22.16Z" style="opacity:.24"/><path class="cls-6" d="M128.47 190.53h20.34v12.88h-20.34z"/><path class="cls-3" d="M149.81 204.4h-22.34v-14.87h22.34Zm-20.34-2h18.34v-10.87h-18.34Z"/><g class="cls-10"><path class="cls-11" d="M128.47 190.53h20.34v4.78h-20.34z"/></g><g class="cls-10"><path class="cls-11" d="M428.04 190.53h20.34v4.78h-20.34z"/></g><g class="cls-10"><path class="cls-11" d="M128.47 403.06h20.34v4.78h-20.34z"/></g><g class="cls-10"><path class="cls-11" d="M428.04 403.06h20.34v4.78h-20.34z"/></g><path class="cls-5" d="M124.24 202.66h28.81V403.5h-28.81z"/><path class="cls-3" d="M154.05 404.5h-30.81V201.66h30.81Zm-28.81-2h26.81V203.66h-26.81Z"/><path class="cls-6" d="M162.37 425.19h-48.3a10.67 10.67 0 0 1 10.66-10.67h27a10.67 10.67 0 0 1 10.67 10.67Z"/><path class="cls-3" d="M163.37 426.19h-50.3v-1a11.67 11.67 0 0 1 11.66-11.67h27a11.68 11.68 0 0 1 11.67 11.67Zm-48.25-2h46.2a9.7 9.7 0 0 0-9.62-8.67h-27a9.68 9.68 0 0 0-9.58 8.67Z"/><path class="cls-5" d="M423.8 202.66h28.81V403.5H423.8z"/><path class="cls-3" d="M453.61 404.5H422.8V201.66h30.81Zm-28.81-2h26.81V203.66H424.8Z"/><path class="cls-6" d="M461.93 425.19h-48.3a10.67 10.67 0 0 1 10.67-10.67h27a10.67 10.67 0 0 1 10.66 10.67Z"/><path class="cls-3" d="M462.93 426.19h-50.3v-1a11.68 11.68 0 0 1 11.67-11.67h27a11.67 11.67 0 0 1 11.66 11.67Zm-48.25-2h46.2a9.68 9.68 0 0 0-9.61-8.67h-27a9.7 9.7 0 0 0-9.59 8.67Z"/><path class="cls-2" d="M135.57 361.99h304.86v16.47H135.57z"/><path class="cls-3" d="M441.43 379.46H134.57V361h306.86Zm-304.86-2h302.86V363H136.57Z"/><g class="cls-4"><path class="cls-5" d="M135.57 361.99h304.86v8.24H135.57z"/></g><path class="cls-3" d="M441.43 379.46H134.57V361h306.86Zm-304.86-2h302.86V363H136.57Z"/><path class="cls-12" d="M251.56 337.74h-5.08l-35.59-100.96h5.09l35.58 100.96zM267.29 308.6h-5.08l-22.49-64.39h5.09l22.48 64.39zM349.58 337.74h-5.09l-35.58-100.96h5.08l35.59 100.96zM365.31 308.6h-5.09l-22.48-64.39h5.08l22.49 64.39z"/><path class="cls-5" d="M207.84 229.6a3.72 3.72 0 1 1-3.72-3.72 3.72 3.72 0 0 1 3.72 3.72Z"/><path class="cls-3" d="M204.12 234.32a4.72 4.72 0 1 1 4.72-4.72 4.72 4.72 0 0 1-4.72 4.72Zm0-7.44a2.72 2.72 0 1 0 2.72 2.72 2.72 2.72 0 0 0-2.72-2.72Z"/><path class="cls-5" d="M274.55 229.6a3.73 3.73 0 1 1-3.73-3.72 3.72 3.72 0 0 1 3.73 3.72Z"/><path class="cls-3" d="M270.82 234.32a4.72 4.72 0 1 1 4.73-4.72 4.72 4.72 0 0 1-4.73 4.72Zm0-7.44a2.72 2.72 0 1 0 2.73 2.72 2.72 2.72 0 0 0-2.73-2.72Z"/><circle class="cls-5" cx="204.12" cy="341.46" r="3.72"/><path class="cls-3" d="M204.12 346.18a4.72 4.72 0 1 1 4.72-4.72 4.72 4.72 0 0 1-4.72 4.72Zm0-7.44a2.72 2.72 0 1 0 2.72 2.72 2.72 2.72 0 0 0-2.72-2.72Z"/><circle class="cls-5" cx="270.82" cy="341.46" r="3.72"/><path class="cls-3" d="M270.82 346.18a4.72 4.72 0 1 1 4.73-4.72 4.73 4.73 0 0 1-4.73 4.72Zm0-7.44a2.72 2.72 0 1 0 2.73 2.72 2.72 2.72 0 0 0-2.73-2.72Z"/><path class="cls-5" d="M305.28 229.6a3.72 3.72 0 1 1-3.72-3.72 3.72 3.72 0 0 1 3.72 3.72Z"/><path class="cls-3" d="M301.56 234.32a4.72 4.72 0 1 1 4.72-4.72 4.72 4.72 0 0 1-4.72 4.72Zm0-7.44a2.72 2.72 0 1 0 2.72 2.72 2.72 2.72 0 0 0-2.72-2.72Z"/><path class="cls-5" d="M372.83 229.6a3.72 3.72 0 1 1-3.72-3.72 3.71 3.71 0 0 1 3.72 3.72Z"/><path class="cls-3" d="M369.11 234.32a4.72 4.72 0 1 1 4.72-4.72 4.72 4.72 0 0 1-4.72 4.72Zm0-7.44a2.72 2.72 0 1 0 2.72 2.72 2.72 2.72 0 0 0-2.72-2.72Z"/><circle class="cls-5" cx="301.56" cy="341.46" r="3.72"/><path class="cls-3" d="M301.56 346.18a4.72 4.72 0 1 1 4.72-4.72 4.72 4.72 0 0 1-4.72 4.72Zm0-7.44a2.72 2.72 0 1 0 2.72 2.72 2.72 2.72 0 0 0-2.72-2.72Z"/><path class="cls-5" d="M372.83 341.46a3.72 3.72 0 1 1-3.72-3.72 3.71 3.71 0 0 1 3.72 3.72Z"/><path class="cls-3" d="M369.11 346.18a4.72 4.72 0 1 1 4.72-4.72 4.73 4.73 0 0 1-4.72 4.72Zm0-7.44a2.72 2.72 0 1 0 2.72 2.72 2.72 2.72 0 0 0-2.72-2.72Z"/><path class="cls-5" d="M404.18 229.6a3.72 3.72 0 1 1-3.72-3.72 3.71 3.71 0 0 1 3.72 3.72Z"/><path class="cls-3" d="M400.46 234.32a4.72 4.72 0 1 1 4.72-4.72 4.72 4.72 0 0 1-4.72 4.72Zm0-7.44a2.72 2.72 0 1 0 2.72 2.72 2.72 2.72 0 0 0-2.72-2.72Z"/><circle class="cls-5" cx="400.46" cy="341.46" r="3.72"/><path class="cls-3" d="M400.46 346.18a4.72 4.72 0 1 1 4.72-4.72 4.73 4.73 0 0 1-4.72 4.72Zm0-7.44a2.72 2.72 0 1 0 2.72 2.72 2.72 2.72 0 0 0-2.72-2.72Z"/><path class="cls-5" d="M176.25 229.6a3.72 3.72 0 1 1-3.72-3.72 3.72 3.72 0 0 1 3.72 3.72Z"/><path class="cls-3" d="M172.53 234.32a4.72 4.72 0 1 1 4.72-4.72 4.72 4.72 0 0 1-4.72 4.72Zm0-7.44a2.72 2.72 0 1 0 2.72 2.72 2.72 2.72 0 0 0-2.72-2.72Z"/><circle class="cls-5" cx="172.53" cy="341.46" r="3.72"/><path class="cls-3" d="M172.53 346.18a4.72 4.72 0 1 1 4.72-4.72 4.73 4.73 0 0 1-4.72 4.72Zm0-7.44a2.72 2.72 0 1 0 2.72 2.72 2.72 2.72 0 0 0-2.72-2.72Z"/><path class="cls-3" transform="rotate(45 204.114 229.607)" d="M203.29 226.41h1.66v6.39h-1.66z"/><path class="cls-3" transform="rotate(45 172.524 229.582)" d="M171.7 226.41h1.66v6.39h-1.66z"/><path class="cls-3" transform="rotate(45 172.53 341.444)" d="M171.7 338.27h1.66v6.39h-1.66z"/><path class="cls-3" transform="rotate(45 204.114 341.457)" d="M203.29 338.27h1.66v6.39h-1.66z"/><path class="cls-3" transform="rotate(45 270.823 229.609)" d="M269.99 226.41h1.66v6.39h-1.66z"/><path class="cls-3" transform="rotate(45 270.823 341.459)" d="M269.99 338.27h1.66v6.39h-1.66z"/><path class="cls-3" transform="rotate(45 301.543 229.583)" d="M300.73 226.41h1.66v6.39h-1.66z"/><path class="cls-3" transform="rotate(45 301.549 341.446)" d="M300.73 338.27h1.66v6.39h-1.66z"/><path class="cls-3" transform="rotate(45 369.107 229.6)" d="M368.28 226.41h1.66v6.39h-1.66z"/><path class="cls-3" transform="rotate(45 369.112 341.461)" d="M368.28 338.27h1.66v6.39h-1.66z"/><path class="cls-3" transform="rotate(45 400.453 229.583)" d="M399.63 226.41h1.66v6.39h-1.66z"/><path class="cls-3" transform="rotate(45 400.454 341.433)" d="M399.63 338.27h1.66v6.39h-1.66z"/><path class="cls-13" d="M202.5 238.56v61.39l50.8-1.09-50.8-60.3z"/><path class="cls-14" d="M253.3 298.86h-49.1l-1.7-60.3h49.1l1.7 60.3z"/><path class="cls-5" d="M251.6 243.23h-48.96l-.14-4.67h49.1v4.67z"/><path class="cls-6" d="M222.37 265.6h-16.3v-20.67h16.3Zm-14.6-1.7h12.91v-17.28h-12.91ZM206.18 279.07H248v2.2h-41.82zM206.18 285.39H248v2.2h-41.82zM206.18 291.72H248v2.2h-41.82zM226.83 258.42h20.87v2.2h-20.87zM226.83 264.75h20.87v2.2h-20.87zM206.18 271.07h41.52v2.2h-41.52zM226.83 245.78h20.87v2.2h-20.87zM226.83 252.1h20.87v2.2h-20.87z"/><path class="cls-14" d="M298.6 302.14h34.32v24.33H298.6z"/><path class="cls-14" d="M298.6 325.62h5.53v6.71h-5.53zM305.72 325.62h5.53v6.71h-5.53zM312.85 325.62h5.53v6.71h-5.53z"/><path class="cls-13" d="m327.62 326.47.39 5.86h5.75l-.84-1.96-5.3-3.9z"/><path class="cls-14" d="M319.89 325.62h5.53v6.71h-5.53zM332.92 326.47l-5.53-.85.92 3.36 2.53 2.4 5.27-.3-2.44-2.58-.75-2.03z"/><path class="cls-6" d="M305.72 304.65h19.7v1.98h-19.7zM302.75 310.86h26.03v1.51h-26.03zM302.75 315.37h26.03v1.5h-26.03z"/><path class="cls-8" d="M30.83 335h61.46v80.64a8.52 8.52 0 0 1-8.52 8.52H39.35a8.52 8.52 0 0 1-8.52-8.52V335Z"/><path class="cls-3" d="M83.77 425.19H39.35a9.53 9.53 0 0 1-9.52-9.52V334h63.46v81.64a9.53 9.53 0 0 1-9.52 9.55ZM31.83 336v79.64a7.52 7.52 0 0 0 7.52 7.52h44.42a7.53 7.53 0 0 0 7.52-7.52V336Z"/><path class="cls-7" d="M30.83 335h61.46v80.64a8.52 8.52 0 0 1-8.52 8.52H39.35a8.52 8.52 0 0 1-8.52-8.52V335Z"/><path class="cls-3" d="M83.77 425.19H39.35a9.53 9.53 0 0 1-9.52-9.52V334h63.46v81.64a9.53 9.53 0 0 1-9.52 9.55ZM31.83 336v79.64a7.52 7.52 0 0 0 7.52 7.52h44.42a7.53 7.53 0 0 0 7.52-7.52V336Z"/><path class="cls-2" d="M38.45 340.11h46.22v64.51a8.52 8.52 0 0 1-8.52 8.52H47a8.52 8.52 0 0 1-8.52-8.52v-64.51h-.03Z"/><g class="cls-4"><path class="cls-5" d="M30.26 340.11h61.45v5.07H30.26z"/></g><path class="cls-3" d="M83.77 425.19H39.35a9.53 9.53 0 0 1-9.52-9.52V334h63.46v81.64a9.53 9.53 0 0 1-9.52 9.55ZM31.83 336v79.64a7.52 7.52 0 0 0 7.52 7.52h44.42a7.53 7.53 0 0 0 7.52-7.52V336Z"/><path class="cls-2" d="M27.25 327.8h67.48v12.31H27.25z"/><path class="cls-3" d="M95.73 341.11H26.25V326.8h69.48Zm-67.48-2h65.48V328.8H28.25Z"/><g class="cls-4"><path class="cls-5" d="M27.25 335.58h67.48v4.33H27.25z"/></g><path class="cls-8" d="M81.5 305.69a14.32 14.32 0 0 1-14.32 13.89H54.8a14.31 14.31 0 0 1-14.31-13.89A28.42 28.42 0 0 1 58.82 299h4.35a28.42 28.42 0 0 1 18.33 6.69Z"/><path class="cls-3" d="M67.18 320.58H54.8a15.23 15.23 0 0 1-15.31-14.86v-.48l.37-.32a29.59 29.59 0 0 1 19-6.89h4.35a29.59 29.59 0 0 1 19 6.89l.37.32v.48a15.24 15.24 0 0 1-15.4 14.86Zm-25.67-14.44a13.24 13.24 0 0 0 13.29 12.44h12.38a13.25 13.25 0 0 0 13.3-12.44A27.61 27.61 0 0 0 63.17 300h-4.35a27.61 27.61 0 0 0-17.31 6.14Z"/><path class="cls-12" d="M56.88 371.8 49 367.23s4.33-7.85 7.2-7.85l5.31 4.49Z"/><path class="cls-3" d="m57.15 372.83-9.21-5.32.35-.65c.76-1.37 4.71-8.23 7.86-8.23h.28l6 5.07ZM50 367l6.64 3.83L60.5 364l-4.59-3.88c-1.6.39-4.26 3.96-5.91 6.88Z"/><path class="cls-12" d="m73.58 364.39-4.23 7.33-8.35-1.54 2.6-1.2a18.66 18.66 0 0 0-7.46-9.6H67.3a13.71 13.71 0 0 1 3.76 6.17Z"/><path class="cls-3" d="M69.35 372.47h-.14l-8.33-1.54a.75.75 0 0 1-.61-.65.75.75 0 0 1 .43-.77l2-.91a18.44 18.44 0 0 0-6.96-8.6.75.75 0 0 1 .41-1.38H67.3a.79.79 0 0 1 .48.18 14.11 14.11 0 0 1 3.73 5.71l1.76-.81a.74.74 0 0 1 .86.17.76.76 0 0 1 .1.88L70 372.1a.77.77 0 0 1-.65.37Zm-5.88-2.6 5.49 1 2.79-4.83-.37.17a.76.76 0 0 1-1-.46 13.53 13.53 0 0 0-3.38-5.62h-8.6a18.87 18.87 0 0 1 5.93 8.66.74.74 0 0 1-.41.87Z"/><path class="cls-12" d="m69.62 377.26 7.29-5.54s5.56 7 4.44 9.68l-6.19 3.16Z"/><path class="cls-3" d="M75.16 385.31a.77.77 0 0 1-.6-.3L69 377.72a.75.75 0 0 1 .15-1.05l7.29-5.54a.74.74 0 0 1 1 .13c1 1.23 5.77 7.52 4.54 10.43a.69.69 0 0 1-.35.38l-6.19 3.16a.81.81 0 0 1-.28.08Zm-4.49-7.9 4.71 6.2 5.35-2.73c.3-1.61-2-5.45-4-8.11Z"/><path class="cls-12" d="m70 395.53-5.12-6.74 4.65-7.08.09 2.85a18.59 18.59 0 0 0 11.74-3.16L77 391.68a13.71 13.71 0 0 1-7.14 1.08Z"/><path class="cls-3" d="M70 396.28a.76.76 0 0 1-.6-.29l-5.12-6.75a.74.74 0 0 1 0-.86l4.65-7.09a.75.75 0 0 1 1.38.39l.07 2.18a18.52 18.52 0 0 0 10.6-3.08.75.75 0 0 1 1.1.91L77.73 392a.76.76 0 0 1-.35.38 14.14 14.14 0 0 1-6.71 1.22l.07 1.94a.75.75 0 0 1-.5.73.69.69 0 0 1-.24.01Zm-4.21-7.52 3.38 4.44v-.41a.74.74 0 0 1 .23-.57.76.76 0 0 1 .6-.22 13.47 13.47 0 0 0 6.49-.9l3.33-7.94a18.81 18.81 0 0 1-10.27 2.12.74.74 0 0 1-.65-.72v-.49Z"/><path class="cls-12" d="m39.94 375 8.38-1.29 4 7.46-2.56-1.27A18.61 18.61 0 0 0 47 391.69L40 383a13.72 13.72 0 0 1 2.45-6.79Z"/><path class="cls-3" d="M47 392.44a.74.74 0 0 1-.58-.28l-7-8.69a.78.78 0 0 1-.17-.48 14.27 14.27 0 0 1 2.12-6.49l-1.73-.86a.75.75 0 0 1 .22-1.41l8.37-1.29a.75.75 0 0 1 .78.38l4 7.47a.76.76 0 0 1-.12.87.75.75 0 0 1-.88.15l-2-1a18.45 18.45 0 0 0-2.34 10.78.76.76 0 0 1-.47.77.87.87 0 0 1-.2.08Zm-6.21-9.69 5.39 6.72a18.73 18.73 0 0 1 3-10 .75.75 0 0 1 .94-.23l.44.22-2.64-4.92-5.52.85.37.19a.73.73 0 0 1 .39.48.74.74 0 0 1-.11.61 13.44 13.44 0 0 0-2.31 6.08Z"/><path class="cls-12" d="m56.18 383.35 1.4 9s-8.83 1.53-10.63-.71L40 383a31.85 31.85 0 0 0 8.76.75Z"/><path class="cls-3" d="M51.9 393.68c-2.3 0-4.59-.34-5.53-1.52l-7-8.69a.75.75 0 0 1 .75-1.2 31.1 31.1 0 0 0 8.55.73l7.45-.4a.74.74 0 0 1 .78.64l1.4 9.05a.75.75 0 0 1-.62.85 36.5 36.5 0 0 1-5.78.54Zm-10.06-9.55 5.7 7.09c1 1.22 5.72 1.08 9.18.56l-1.18-7.65-6.77.37a32.79 32.79 0 0 1-6.93-.37ZM523.66 426h-12V244.55h12Zm-10-2h8V246.55h-8Z"/><path class="cls-6" d="M0 425.19h577v6.27H0z"/><g class="cls-10"><path class="cls-11" d="M459.93 431.46H115.07l-1-6.27h347.86l-2 6.27z"/></g><path class="cls-2" d="M442.65 362h-309.3a7.21 7.21 0 0 1-7.21-7.21 7.21 7.21 0 0 1 7.21-7.2h309.3a7.21 7.21 0 0 1 7.21 7.2 7.21 7.21 0 0 1-7.21 7.21Z"/><path class="cls-3" d="M442.65 363h-309.3a8.21 8.21 0 1 1 0-16.41h309.3a8.21 8.21 0 1 1 0 16.41Zm-309.3-14.41a6.21 6.21 0 1 0 0 12.41h309.3a6.21 6.21 0 1 0 0-12.41ZM466.6 191.53H109.4v-1a30.52 30.52 0 0 1 30.48-30.48h296.24a30.52 30.52 0 0 1 30.48 30.48Zm-355.18-2h353.16a28.51 28.51 0 0 0-28.46-27.48H139.88a28.51 28.51 0 0 0-28.46 27.48Z"/><g class="cls-4"><path class="cls-5" d="M449.79 353.85a7.2 7.2 0 0 0-7.14-6.27h-309.3a7.2 7.2 0 0 0-7.14 6.27Z"/></g><path class="cls-3" d="M442.65 363h-309.3a8.21 8.21 0 1 1 0-16.41h309.3a8.21 8.21 0 1 1 0 16.41Zm-309.3-14.41a6.21 6.21 0 1 0 0 12.41h309.3a6.21 6.21 0 1 0 0-12.41Z"/><g class="cls-10"><path class="cls-11" d="M512.66 424.96h10l-1.23 6.5h-8.14l-.63-6.5z"/></g><g class="cls-10"><path class="cls-11" d="M91.72 431.46H30.33a19.63 19.63 0 0 1 15.25-7.27h33.76a14.17 14.17 0 0 1 12.38 7.27Z"/></g><path class="cls-8" d="M489.93 265.78h55v18.97h-55z"/><path class="cls-3" d="M545.93 285.75h-57v-21h57Zm-55-2h53v-17h-53Z"/><path class="cls-14" d="M495.09 269.52h44.68V281h-44.68z"/><circle class="cls-2" cx="517.66" cy="202.94" r="48.07"/><path class="cls-3" d="M517.66 252a49.07 49.07 0 1 1 49.07-49.07A49.12 49.12 0 0 1 517.66 252Zm0-96.14a47.07 47.07 0 1 0 47.07 47.07 47.12 47.12 0 0 0-47.07-47.06Z"/><circle class="cls-8" cx="517.66" cy="202.94" r="41.62" transform="rotate(-45 517.66 202.938)"/><path class="cls-3" d="M517.66 245.56a42.62 42.62 0 1 1 42.62-42.62 42.66 42.66 0 0 1-42.62 42.62Zm0-83.23a40.62 40.62 0 1 0 40.62 40.61 40.66 40.66 0 0 0-40.62-40.61Z"/><path class="cls-8" d="M550 190.68V211a5.76 5.76 0 0 1-5.76 5.76h-53.15a5.76 5.76 0 0 1-5.77-5.76v-5.37c0-.73 0-1.48.1-2.2a26.62 26.62 0 0 1 2.09-8.36 47.92 47.92 0 0 0 2-5.66c.08-.24.16-.49.22-.73a7.19 7.19 0 0 1 6.91-5.19h46.21a7.18 7.18 0 0 1 7.07 5.92 6.67 6.67 0 0 1 .08 1.27Z"/><path class="cls-3" d="M544.24 217.76h-53.15a6.77 6.77 0 0 1-6.77-6.76v-5.37c0-.77 0-1.55.11-2.29a27 27 0 0 1 2.17-8.67 47.49 47.49 0 0 0 1.92-5.54c.08-.25.15-.49.22-.72a8.23 8.23 0 0 1 7.87-5.92h46.21a8.14 8.14 0 0 1 8.18 8.19V211a6.76 6.76 0 0 1-6.76 6.76Zm-47.63-33.27a6.21 6.21 0 0 0-5.95 4.47c-.06.24-.14.5-.23.76a48 48 0 0 1-2 5.75 25.28 25.28 0 0 0-2 8c-.07.7-.1 1.41-.1 2.12V211a4.77 4.77 0 0 0 4.77 4.76h53.15A4.76 4.76 0 0 0 549 211v-20.32a6 6 0 0 0-.09-1.08 6.18 6.18 0 0 0-6.09-5.11Z"/><path class="cls-8" d="M506.68 216.27a6.13 6.13 0 1 1-6.13-6.13 6.14 6.14 0 0 1 6.13 6.13Z"/><path class="cls-3" d="M500.55 223.4a7.13 7.13 0 1 1 7.13-7.13 7.14 7.14 0 0 1-7.13 7.13Zm0-12.26a5.13 5.13 0 1 0 5.13 5.13 5.13 5.13 0 0 0-5.13-5.13Z"/><path class="cls-8" d="M543.09 216.27a6.13 6.13 0 1 1-6.13-6.13 6.14 6.14 0 0 1 6.13 6.13Z"/><path class="cls-3" d="M537 223.4a7.13 7.13 0 1 1 7.13-7.13 7.13 7.13 0 0 1-7.13 7.13Zm0-12.26a5.13 5.13 0 1 0 5.13 5.13 5.13 5.13 0 0 0-5.13-5.13Z"/><path class="cls-8" d="M539.3 216.27a2.35 2.35 0 1 1-2.34-2.35 2.34 2.34 0 0 1 2.34 2.35Z"/><path class="cls-3" d="M537 219.61a3.35 3.35 0 1 1 3.34-3.34 3.35 3.35 0 0 1-3.34 3.34Zm0-4.69a1.35 1.35 0 1 0 1.34 1.35 1.34 1.34 0 0 0-1.34-1.35Z"/><path class="cls-8" d="M502.89 216.27a2.35 2.35 0 1 1-2.34-2.35 2.34 2.34 0 0 1 2.34 2.35Z"/><path class="cls-3" d="M500.55 219.61a3.35 3.35 0 1 1 3.34-3.34 3.35 3.35 0 0 1-3.34 3.34Zm0-4.69a1.35 1.35 0 1 0 1.34 1.35 1.34 1.34 0 0 0-1.34-1.35Z"/><path class="cls-8" d="M500.55 189.41h17.49v14.02h-17.49z"/><path class="cls-3" d="M519 204.43h-19.45v-16H519Zm-17.49-2H517v-12h-15.45Z"/><path class="cls-8" d="M520.56 189.41h19.72v14.02h-19.72z"/><path class="cls-3" d="M541.28 204.43h-21.72v-16h21.72Zm-19.72-2h17.72v-12h-17.72Z"/><path class="cls-8" d="M498 189.41h-8.55a47.92 47.92 0 0 1-2 5.66 26.62 26.62 0 0 0-2.09 8.36h8.72l3.89-4.66Z"/><path class="cls-3" d="M494.61 204.43h-10.27l.09-1.08a27 27 0 0 1 2.17-8.68 47.49 47.49 0 0 0 1.92-5.54l.21-.72H499v10.73Zm-8.08-2h7.14l3.36-4v-8h-6.8a46.42 46.42 0 0 1-1.8 5.06 25.39 25.39 0 0 0-1.9 6.94Z"/><path class="cls-8" d="M549.89 189.41h-7.1v14H550v-12.73a6.67 6.67 0 0 0-.11-1.27Z"/><path class="cls-3" d="M551 204.43h-9.21v-16h8.93l.15.82a7.45 7.45 0 0 1 .13 1.45Zm-7.21-2H549v-12h-5.21Z"/><path class="cls-5" d="M501.24 365.55h32.39v59.63h-32.39z"/><path class="cls-3" d="M534.62 426.19h-34.38v-61.64h34.38Zm-32.38-2h30.38v-57.64h-30.38Z"/><path class="cls-5" d="M530.63 354.78h-25.39l-4 10.78h32.39l-3-10.78z"/><path class="cls-3" d="M534.94 366.55H499.8l4.74-12.77h26.84Zm-32.26-2h29.63l-2.44-8.77h-23.94Z"/><path class="cls-2" d="M505.45 371.46h23.97v47.82h-23.97z"/><path class="cls-3" d="M530.42 420.28h-26v-49.82h26Zm-24-2h22v-45.82h-22Z"/><path class="cls-2" d="M522.22 347.58h-9.56l-7.42 7.2h25.18l-8.2-7.2z"/><path class="cls-3" d="M533.07 355.78h-30.3l9.49-9.2h10.34Zm-25.36-2h20.05l-5.92-5.2h-8.77ZM95.73 341.11H26.25V326.8h69.48Zm-67.48-2h65.48V328.8H28.25Z"/><path class="cls-3" d="M92.72 328.58H29.26v-1A29.36 29.36 0 0 1 34.33 311a29.74 29.74 0 0 1 3.59-4.35 29.35 29.35 0 0 1 20.9-8.65h4.35a29.57 29.57 0 0 1 29.55 29.55Zm-61.44-2H90.7A27.56 27.56 0 0 0 63.17 300h-4.35a27.55 27.55 0 0 0-27.54 26.55ZM551 211h8.07v1.92H551zM478.44 210h8.07v1.92h-8.07z"/></g></g></svg>
