<svg xmlns="http://www.w3.org/2000/svg" width="190" height="22" viewBox="0 0 520.58 100.56"><defs><style>.cls-1{fill:#eee3d7}</style></defs><g id="Layer_2" data-name="Layer 2"><g id="Layer_1-2" data-name="Layer 1"><path class="cls-1" d="M308 37.39q-3 11.14-6 22.29-4.91 18.2-9.79 36.39a1.59 1.59 0 0 1-1.81 1.42h-25.43c-1.08 0-1.22-.23-.94-1.27q12.44-46.33 24.8-92.69c.19-.72.47-1 1.28-1h43.05c.88 0 1 .22.91 1.08-1.44 10-2.84 20.08-4.26 30.12-.92 6.53-1.86 13.05-2.78 19.57-.06.44-.08.88-.12 1.31a.76.76 0 0 0 0 .11c0 .19.09.38 0 .56.15-.09.15-.3.3-.4Q334.59 36 342 17.05q2.67-6.8 5.31-13.59a1.15 1.15 0 0 1 1.28-.89h42.81c.87 0 1.05.15.81 1.05q-8.73 32.48-17.41 65.02c-2.45 9.17-4.92 18.33-7.34 27.51a1.49 1.49 0 0 1-1.75 1.35h-25.07c-1.76 0-1.85-.12-1.41-1.74l15.69-58.21a4 4 0 0 0 .09-.59c.21-.28 0-.61.11-.89v-.11a.77.77 0 0 1-.34.5L343 64q-6.89 16.1-13.73 32.21a1.22 1.22 0 0 1-1.32.89h-24.2c-.65 0-1 0-.91-.88 1.2-12.4 2.34-24.8 3.51-37.19.6-6.32 1.23-12.64 1.83-19 .06-.56.05-1.12.07-1.68.27-.57-.09-1.18.1-1.76 0-.29.18-.54.23-.86-.06.2-.11.37-.17.53-.12.41-.09.83-.41 1.13ZM450.71 2.89c-.74 2.78-1.43 5.45-2.15 8.12-1.49 5.58-3 11.15-4.48 16.74-.21.83-.56 1-1.38 1h-21.84c-.91 0-1.34.18-1.56 1.14-.63 2.65-1.38 5.26-2.12 8h21.76C438.1 41 437.28 44 436.48 47c-1.25 4.65-2.52 9.31-3.72 14-.21.81-.55 1-1.37 1-6.26 0-12.52 0-18.78-.06-1.34 0-1.92.28-2.21 1.66-.59 2.74-1.42 5.43-2.17 8.24h24.47c-1.07 4-2.1 7.85-3.14 11.73-1.13 4.23-2.29 8.46-3.36 12.7a1.41 1.41 0 0 1-1.67 1.29h-49.11c-.91 0-1-.19-.78-1.06q11.61-43.21 23.16-86.45c.55-2 1.13-4.06 1.62-6.12.19-.84.54-1.11 1.43-1.1h49.86ZM39.86 40.12q4.88-18 9.71-36c.23-.84.53-1.21 1.49-1.21q36.48.06 73 0h1.15c-.79 1.56-1.5 3-2.23 4.41-3.54 6.82-7.11 13.63-10.6 20.48a1.87 1.87 0 0 1-1.95 1.2c-4.68 0-9.37.09-14.06.15-6.27.07-12.54.16-18.82.22-.61 0-.92.15-1.07.8-.43 1.77-.93 3.52-1.4 5.28a6.44 6.44 0 0 1-.94 3.37c-.63 2.1-.63 2.1 1.51 2.1h30.19c-.93 1.79-1.79 3.47-2.67 5.14-3.35 6.38-6.73 12.75-10.06 19.15a1.5 1.5 0 0 1-1.56.93H67.96c-.91 0-1.28.23-1.51 1.15-1 4.07-2.18 8.11-3.28 12.16-.55.61-1.27.29-1.88.23-3.07-.3-6.14-.71-9.19-1.23A84.44 84.44 0 0 1 36 74.31 13.52 13.52 0 0 1 31.33 72a2.68 2.68 0 0 1 .15-1.85c2-7.34 3.92-14.68 5.92-22 .82-2.22 1.41-4.52 2.05-6.79a10.43 10.43 0 0 1 .41-1.24ZM227.55 0a37.59 37.59 0 0 1 19.34 5c.65.39.86.72.65 1.49q-4 15-7.86 30.1c-.24.92-.47.86-1.13.39a24.93 24.93 0 0 0-13.12-5c-7.53-.41-13.08 3-17 9.26A24.51 24.51 0 0 0 205 58.48c1.16 7.1 6.71 11 13.85 10a31 31 0 0 0 12.71-5c.29-.18.59-.6.93-.4s.09.65 0 1q-4.23 16.2-8.47 32.4a1.31 1.31 0 0 1-.8 1.06c-9 3.6-18.19 4.24-27.28.42-9.56-4-15.43-11.43-18.49-21.2-2.67-8.53-2.66-17.21-1.19-25.95A67.37 67.37 0 0 1 189.2 20.4c7-9.17 15.83-15.79 27.1-18.87A47.34 47.34 0 0 1 227.55 0ZM243.61 97.4h-12.83c-1 0-1.12-.19-.87-1.13Q238 66.38 246 36.44c2.92-10.9 5.86-21.8 8.74-32.71.24-.88.55-1.17 1.49-1.17q12.78.07 25.55 0c.91 0 1.13.1.86 1.09Q270.15 50 257.79 96.34c-.24.9-.63 1.08-1.47 1.08-4.23-.04-8.47-.02-12.71-.02Z"/><path class="cls-1" d="M39.64 40.4c0 .14.18.31.15.42-.75 2.53-1.32 5.11-2.28 7.57a29.66 29.66 0 0 1-4.47 2 26.32 26.32 0 0 0-8.16 5.36 7.52 7.52 0 0 0-1.47 8.94c1.33 3 3.66 4.88 6.3 6.54a3.34 3.34 0 0 1 1.38 1.11 49.65 49.65 0 0 0 12.32 4.46 120.06 120.06 0 0 0 19.67 3.1 75.07 75.07 0 0 0 14.22.29 28.77 28.77 0 0 0 9.54-2.06 7.48 7.48 0 0 0 2.74-1.87 2.49 2.49 0 0 0 0-3.56 9.55 9.55 0 0 0-4.4-2.7 35 35 0 0 0-8.91-1.59c-.32 0-.63-.09-1-.13-.1 0-.13-.08-.09-.11a.15.15 0 0 1 .11 0 40.94 40.94 0 0 1 12 1.11 12.05 12.05 0 0 1 3.06 1.32 5.86 5.86 0 0 1 .3 9.79 21.08 21.08 0 0 1-7.47 3.06 96.31 96.31 0 0 1-20.48 2.43 3.13 3.13 0 0 0-1.29.13 2.58 2.58 0 0 1-.81.19c-3.4 0-6.8.14-10.19 0A142.4 142.4 0 0 1 36 84.77c-2.13-.34-4.26-.66-6.38-1.09a2 2 0 0 1-1.38-.62c-6.12-1.39-12.13-3.06-17.66-6.14-3.5-1.92-6.66-4.25-8.75-7.77a11.64 11.64 0 0 1 1.78-14.69c3.57-3.66 8-5.87 12.66-7.73a126 126 0 0 1 23.37-6.33Z"/><path class="cls-1" d="M28.23 83.06a149.67 149.67 0 0 0 32.23 2.86 6.11 6.11 0 0 1 .95.09c-1.18 4.38-2.41 8.77-3.51 13.16-.16.6-.46.71-1 .71H24.53c-.59 0-.87 0-.66-.79 1.48-5.34 2.91-10.69 4.36-16.03ZM74.12 39.07a11.8 11.8 0 0 1 .94-3.39c4.81-.31 9.62-.66 14.43-.9 2.1-.11 4.21 0 6.33.06-7.38.68-14.52 2.57-21.7 4.23ZM308.48 36.43a6.17 6.17 0 0 1-.24 2c-.09-.33.08-.71-.22-1 .09-.39.17-.77.25-1.16.2-.12.3-.08.21.16ZM75.34 68.15a.11.11 0 0 1 0 .15 2.31 2.31 0 0 1-1.63-.09 3.32 3.32 0 0 1 1.63-.06ZM327.15 54.88l-.34 1.1c-.18-.65-.19-1 .08-1.37ZM354.79 36.43l.26-.71c.24 0 .31.08.24.31a1.34 1.34 0 0 1-.28.9Z"/><path class="cls-1" d="m308.48 36.43-.21-.2.31-.91a1.11 1.11 0 0 1-.1 1.11ZM355.29 36l-.24-.31.3-.81a1 1 0 0 1-.06 1.12ZM517.62 19.82c-3.61-8-9.37-13.45-18.18-15.37a82.48 82.48 0 0 0-17-1.72c-7.64-.07-15.28 0-22.91 0-.82 0-1.18.21-1.39 1Q445.78 50 433.35 96.28c-.24.91-.14 1.15.85 1.14h16.54c3.44 0 8.32 0 13.18-.28 6-.42 12-1.14 17.7-3.32 9.14-3.5 16.57-9.4 22.81-16.79a68.15 68.15 0 0 0 16-39.27 35.93 35.93 0 0 0-2.81-17.94Zm-32.34 41.36c-3.17 4.17-7.63 6.17-12.71 6.91-1.15.16-2.31.19-3.46.34-.89.12-1.17-.07-.9-1.05 2.78-10.24 5.51-20.49 8.26-30.74.27-1 .54-2 .82-3 .49-1.8.5-1.8 3-1.77a20 20 0 0 1 3.77.54c4.74 1.13 7.48 4.25 7.52 9.21a31.1 31.1 0 0 1-6.3 19.56ZM169.85 88.32q-.21-16.84-.41-33.68c-.1-8-.22-16-.31-24q-.16-13.53-.26-27.08c0-.88-.28-1-1.08-1H135.9a1.32 1.32 0 0 0-1.38.83q-6 11.7-12.1 23.37l-31.9 61.59-4.65 9a5 5 0 0 0 .57.08h28.06c.65 0 .88-.28 1.12-.8 1.56-3.4 3.17-6.79 4.71-10.2a1.32 1.32 0 0 1 1.41-1h18.46c1 0 1.13.29 1.06 1.16-.25 3.26-.42 6.53-.67 9.8-.06.76.11 1 .93 1h27.45c.7 0 1.09-.06 1.06-1-.11-2.64-.15-5.39-.18-8.07Zm-24.49-54.26c-.34 3.85-.66 7.71-1 11.56-.52 5.48-1.07 11-1.61 16.43 0 .41.1.89-.63.88h-10.7l3.37-7.39q5-11 10-22.06c.09-.22.21-.42.32-.64.65.3.29.79.25 1.22Z"/><path class="cls-1" d="M145.36 34.06c-.13-.4.12-.87-.22-1.23l.23-.65a2.54 2.54 0 0 1-.01 1.88Z"/></g></g></svg>
