<svg xmlns="http://www.w3.org/2000/svg" width="203" height="30" viewBox="0 0 717.08 182.01"><defs><style>.cls-1{fill:#eee3d7}</style></defs><g id="Layer_2" data-name="Layer 2"><g id="Layer_1-2" data-name="Layer 1"><path class="cls-1" d="M98.24 85.52c3.17-9.24 6.32-18.33 9.37-27.47.67-2 1.19-3.58 3.81-3.78 13-1 26-2.23 38.84.12 21.83 4 31.84 16 32.36 38.24.34 14.47.25 29 .37 43.44 0 2.49 0 5 .2 7.48.89 10 5.42 14.08 15.59 14h3.48c-3.39 14-15.92 23.22-30.85 23-11.65-.16-23.66-11.38-26.48-24.87-1.94-9.26-.2-18.58-.26-27.88 0-2 0-4 .12-6s-.73-2.3-2.4-1.76c-3.64 1.17-7.41 2-10.9 3.5-8 3.43-12.18 11.72-10.66 20.45 1.3 7.47 7.69 12.79 16.35 13.61l2.7.27c-3.35 8.94-8.58 16-16.71 20.68-12.41 7.09-28.27 2.8-37.33-9.93-15.94-22.4-5.92-52.8 20.17-60.86 7.3-2.25 14.76-4 22.13-6a56.16 56.16 0 0 0 11.06-4.5c4.52-2.35 5.78-6.11 5-10.88-.71-4.53-3.69-6.07-7.89-6.93-11.14-2.3-21.44.43-31.62 4.46-1.94.82-3.69 2.28-6.45 1.61ZM8.07 175.74c6.11-6.72 7.09-14.37 7-22.31-.18-22.48-.5-45-.47-67.43 0-4.65-1.07-6.3-6.05-6.06-9.52.45-10.15-.8-6.58-9.86a23.09 23.09 0 0 1 7.91-10.74c3.67-2.56 4.51-5.65 4.19-9.75a50 50 0 0 1 1.29-13.89C19.7 14.47 33.66 2.11 55.4.29a94.45 94.45 0 0 1 30.22 2.63c2.61.63 3.42 1.22 2 3.83-4.06 7.44-8 15-11.87 22.5-1 1.91-1.75 2.3-3.66.79-4.35-3.42-9.39-4.5-14.48-2.06s-5.82 7.38-5.73 12.37-1.89 11.36 1 14.49 9.45.85 14.38 1c6 .19 12 .13 18 0 2.71-.06 3.81.32 3.14 3.59-2.39 11.71-8.28 17.77-20 19.87-1.63.29-3.29.49-4.94.7-3.6.46-8.37-1.48-10.54.87-2.35 2.54-.68 7.3-.65 11.08.17 19.48.6 38.95.61 58.43 0 8.46 1.7 16.16 7.05 22.86a7.61 7.61 0 0 1 .9 1.75c0 .11-.09.3-.24.73ZM592.78 162.36c-6.67 11.85-17.46 18-27.42 16s-15.61-8.79-18.57-18.2c-3.27-10.39-2.2-21.13-2.55-31.71-.55-16.63-.49-33.29-.37-49.93 0-4.08-1.32-5.2-5.14-4.94-7.47.49-15-.55-22.45.45-14.79 2-21.64 8.9-23.46 23.88-1.09 9-.7 17.92-.46 26.9.28 10 .34 20 .38 30 0 7.51 1.59 14.51 6.75 21H465c7.43-9.06 6.12-19.7 6-30.08-.31-23.46.25-46.93-.84-70.38-.31-6.65-1.94-12.76-6.7-18.71 6.75-.47 12.75-1.11 18.76-1.23 4.41-.09 5.78 3.43 6.49 7 .67 3.35 1 6.77 1.57 11.14 7.21-11.87 18.13-13.55 29.84-13.53a89.09 89.09 0 0 0 12.44-.78c9.88-1.41 16.82-6.68 20.32-16.2 2.68-7.27 3.49-14.85 4-22.49.16-2.35-1.18-5.59 3.48-5.45s3.13 3.51 3.17 5.74c.23 10.32.41 20.64.21 31-.08 3.86 1.21 4.75 4.84 4.62 7.48-.27 15 .11 22.47-.16 3.65-.13 4.2 1.43 3.78 4.44-1 7.07-6.74 12.35-14.45 12.83-4.31.27-8.65.15-13 .13-2.1 0-3.5.4-3.45 3 .43 22.27-.54 44.64 1.87 66.8 1.77 16.28 8.5 20.63 24.63 18.86a17.45 17.45 0 0 1 2.35 0ZM243 176.74h-34.54c7.36-8.79 6.63-18.7 6.51-28.5-.26-21.8-.59-43.6-.75-65.4-.07-8.92-.55-17.64-7.61-25.48 7.74-.46 14.5-.54 21.2-1.49 3.12-.45 4.64 2.3 5.19 5.08.73 3.72 1.17 7.49 3 12.19 2.22-2.59 4.21-5.42 6.7-7.73 11.86-11 25.77-13.69 40.77-8.34s22.86 17.11 25.43 32.49c1.82 10.9.76 21.93 1 32.9.21 9.32.13 18.64.22 28s.51 18.68 7.83 26.87c-5.9.57-11 1-16-.15-7.29-1.72-11.13-6.19-12.11-14-1.61-12.76-.68-25.6-.94-38.41-.2-10 .1-20-2-29.81-4-18.94-20.49-27.51-38.36-19.81-8.42 3.62-11.56 11-12.12 19.24-1.52 22.43-.85 44.89.09 67.34.23 5.35 2.82 10.06 6.49 15.01ZM707 155.11c-11.49 5.3-23.34 9-36.13 7.23-20.18-2.84-34.5-17.49-37.88-38.15-1.7-10.4-1.7-10.4 8.62-10.41h75.3l.2-.16-.52-6c-1.1-.86-.57-2.23-.72-3.36-1.74-13.6-5.63-26.37-15-36.84-20.58-23.09-59.95-20.54-79.8 5.1-11.65 15-14.57 32.33-13.35 50.83 1.78 27.08 21 50.83 47.55 55.93 30.65 5.88 46.4-1.36 59.05-24.66.6-1.1.92-2.55 2.5-2.81l.21-.91-.17-.09c-3.71.39-6.61 2.79-9.86 4.3Zm-73.2-62.72c3-15 14.55-24.59 29.62-24.42 14 .17 25 10 27.75 24.64.63 3.33.13 4.41-3.4 4.32-8.48-.2-17-.06-25.45-.06-8.32 0-16.65-.22-24.95.09-4 .15-4.25-1.32-3.6-4.57ZM446.81 98.4C432.2 48.79 383 41.53 352.75 66.61c-24.09 20-29.53 57.67-12.59 85.91 17.14 28.57 52.67 37 80.64 18.84 19.67-12.79 27.92-31.79 28.29-54.67a57.47 57.47 0 0 0-2.28-18.29Zm-30.14 52.09c-13.66 17.76-39 17-52.52-1.51-6.79-9.32-10.28-21.62-10.32-36.36 0-11.68 2.77-22.41 10.75-31.32 12.29-13.73 32.38-14.63 46-2.15 17.69 16.29 20.78 52.24 6.09 71.34Z"/></g></g></svg>
