<svg xmlns="http://www.w3.org/2000/svg" width="203" height="23" viewBox="0 0 620.42 115.36"><defs><style>.cls-1{fill:#eee3d7}</style></defs><g id="Layer_2" data-name="Layer 2"><g id="Layer_1-2" data-name="Layer 1"><path class="cls-1" d="M620.42 113.79c-24.33.12-48.68 0-73 .5-7.45.16-9.55-2.28-9.48-9.42.33-31.71.44-63.44 0-95.15-.2-8.72 3.73-9.48 10.86-9.4 23.87.27 47.75 0 71.62 0V28c-10.59 7.23-22.65 3.93-34 4S571 36.26 570.93 47.42c-.34 33.36-.72 33.36 33.66 34.54 5.61.19 11.27.13 15.83 4.15ZM288.17 114.14h-4.23c-12.17-.23-27.34 3.79-35.66-1.88s-1.8-21.44-2.92-32.73c-.25-2.58 1-6.89-2-7.27-16-2-7.1-14-9.22-21.41-.45-1.56.19-4.92.91-5.09C255 41 244 25.55 244.73 15.45 245.6 4.1 247-.76 260.18.1a529.3 529.3 0 0 0 60.54.07c12.13-.61 9.95 6.64 9.77 13.23s3.31 15.48-9.94 14.5c-12.6-.92-25.34 0-38-.26-5.92-.12-9.6.54-9.5 8 .1 6.82 2.51 8.83 9.09 8.58 10.31-.39 20.76.81 31-.33 12.47-1.4 11.75 5.55 12.12 14 .42 9.56-1.24 14.73-12.75 13.58-10.23-1-20.65 0-31-.27-5.79-.16-8.46 1.51-8.43 7.74 0 5.88 1.84 8.25 8.06 8.11 13.61-.32 27.25.25 40.85-.18 12.7-.4 8.09 8.69 8.41 14.5s3.12 13.6-8.4 12.93c-11.26-.67-22.56-.16-33.83-.16ZM483 114.15h-4.22c-12.17-.2-27.32 3.83-35.66-1.82s-1.83-21.41-2.95-32.68c-.25-2.61.93-7-1.92-7.34-16.06-1.84-7.33-13.81-9.36-21.26-.44-1.58.14-4.93.85-5.1 19.64-4.78 9.51-20.19 9.76-30.21.33-12.83 3.95-16.27 16.59-15.58a492.45 492.45 0 0 0 57.63 0c12.69-.79 11.52 6 11.93 14.2.46 9.37-.94 14.67-12.6 13.62-12.09-1.09-24.37-.1-36.55-.29-5.4-.09-8.86.66-8.71 7.35.14 6 1.07 9.5 8.4 9.2 11.23-.47 22.57.67 33.73-.33 12-1.08 9.94 6.49 9.9 13.18-.05 7 2.47 15.33-10.29 14.35-11.18-.85-22.5.08-33.74-.25-6.24-.19-7.91 2.29-8 8.12-.09 6.24 2.46 7.85 8.29 7.74 13.59-.27 27.2.21 40.78-.15 12.58-.34 8.07 8.71 8.41 14.55s2.87 13.53-8.52 12.86c-11.21-.68-22.49-.17-33.75-.16Z"/><path class="cls-1" d="M147.22 55.8c0-14.74.57-29.52-.2-44.22C146.52 2.18 150 0 159 .23c20.63.63 41.33 1 61.93-.09 11.6-.58 13 4.16 12.64 13.61-.37 8.41.48 15.38-12.06 14.21-12.09-1.13-24.39 0-36.58-.35-6.73-.2-10.4 1-10.08 8.9.57 13.8.55 27.66 0 41.46-.3 7.69 3.05 9.28 10 9.07 12.66-.39 25.4.61 38-.32 11.1-.82 11.13 5.43 10.51 12.82-.54 6.51 3.58 15.26-9.71 14.81-22.5-.74-45.05-.4-67.57-.09-6.71.09-9.06-2.05-8.91-8.69.3-16.57.06-33.18.05-49.77ZM371.7 71V50.26c0-20.56 0-21.09-21.31-22.35-11.66-.68-7.59-8.56-7.61-13.91S338.72.21 350.48.36c23.43.29 46.87 0 70.31.12 12.81.06 6.35 9.82 7.21 15.31s2.48 11.77-7.88 12.17c-20.66.81-20.64 1.42-20.64 21.51 0 17-.62 34.09.23 51.07.53 10.65-2.46 14-13.81 14.08-11.91.1-15.6-3.29-14.4-14.67 1-9.56.2-19.31.2-28.95ZM59.44 102.06c-.34 9.58-5.22 12.46-14.74 11a330.85 330.85 0 0 0-34.88-3.48c-8-.42-10.13-3.88-9.78-11.25.58-12.38-.24-24.84 3-37 15.59-4.65 31.23-1.27 46.7.37 7 .74 7.32 7.58 6.51 13.26-1.16 7.85-1.25 15.47 3.2 22.54a5.25 5.25 0 0 1-.01 4.56Z"/><path class="cls-1" d="M5.9 55.48c-.09-14.63.18-29.28-.38-43.89C5.15 2.18 9-.56 18.08.88c13.78 2.18 27.68 3.66 41.53 5.44 8.56 3 6.47 8.38 3.26 14A34 34 0 0 0 60.58 31c-1.87 21-3.42 22.49-24 23-6.56.15-12.94.39-18.84 3.82C13.31 60.34 8.88 61 5.9 55.48Z"/><path class="cls-1" d="M113 56c-8.62-7.72-19.38-6.46-29.41-5.61-11.83 1-14-3.63-12.73-14 .7-5.59 5.5-12.68-2.54-17.36-2.54-4.85-4.87-9.77-5.4-15.3 14.92 0 29.84.14 44.74-.18 8.29-.18 11.89 3 11.56 11.32-.4 10.06-.13 20.15.12 30.22.09 5.1-1.07 9.09-6.34 10.91ZM59.49 102.36C68.28 95.85 67 86 67.3 77.2c.29-8.46 2.49-13.48 12.09-11.4 12.79 2.76 24.26-3.3 36.4-4.9 6.73 12.66-1.85 24-3.82 35.71-3.34 19.9-4.26 20-24 15-9.69-2.48-20.72-1.45-28.5-9.53-.03-.02.02.28.02.28ZM276.89 64.57h41.54v1.38h-41.06ZM471.35 64c9.22 0 18.48-.53 27.65.15 10.22.75 16.65-1.52 14.53-13.83 4.51 15 3.59 16.32-11.07 16.44-10.19.07-20.37 0-30.56 0Z"/></g></g></svg>
