<svg xmlns="http://www.w3.org/2000/svg" width="203" height="35" viewBox="0 0 675.57 197.57"><defs><style>.cls-1{fill:#eee3d7}</style></defs><g id="Layer_2" data-name="Layer 2"><g id="Layer_1-2" data-name="Layer 1"><path class="cls-1" d="M350.62 136.49c-.35-5.83-.48-11.66-.46-17.49V63.37c0-3.37-.42-2.49 4.34-2.69 5.34-.22 10.7-.3 16 0 4.35.23 4.35-.49 4.4 1.86v118.44c0 3.34.42 3-2.89 3-3.59 0-7.19-.09-10.79 0a12.84 12.84 0 0 1-11.22-5.49q-27-35-54.23-69.89a8.47 8.47 0 0 0-1.89-2.13c.58 24.87.16 49.6.28 74.34 0 4.2.48 2.85-5.08 3.18a113.37 113.37 0 0 1-14.86 0c-4.93-.36-4.74.79-4.74-2.5V63.53c0-3.22-.42-2.83 2.76-2.84 3.76 0 7.53.21 11.27-.06 4.74-.35 8 1.58 10.77 5.31 5.19 7 10.64 13.8 16 20.68q19.92 25.66 39.83 51.32c1.24-.04.49-.89.51-1.45ZM147.43 101.3V62.46c0-1.7.05-1.74 1.72-1.74h24.7c1.18 0 1.83.27 1.66 1.6a11.62 11.62 0 0 0 0 1.67v69a41.07 41.07 0 0 0 1.49 11.84c3.21 10.68 11.64 16.75 22.8 16.42a26.91 26.91 0 0 0 8.25-1.36c7.56-2.73 11.85-8.35 14-15.88a42.94 42.94 0 0 0 1.23-11.63V63.82c0-4.6-.49-2.5 6.55-3.32a68.26 68.26 0 0 1 14.85 0c7 .71 6.66-.82 6.66 2.37v71.91a54.44 54.44 0 0 1-3.51 19.47c-5.41 14.19-15.41 23.71-29.86 28.27a60.3 60.3 0 0 1-36.59.15c-18.05-5.59-28.64-18.1-32.65-36.39a63.72 63.72 0 0 1-1.24-13.57c-.07-10.48-.05-20.95-.06-31.41ZM107.34 34.89A56.92 56.92 0 0 0 114 47.56q2.31 3.49 4.46 7.1c5.29 8.82 6.13 18.15 3.09 27.9a69.64 69.64 0 0 1-6.24 14c-1.27 2.21-2.58 4.41-3.85 6.63a17.61 17.61 0 0 0-2.31 7.73c-.22 3.43-.16 6.86-.12 10.3q.12 10.55.19 21.1a44.37 44.37 0 0 1-.82 9.05 20.41 20.41 0 0 1-6.78 11.57A42.89 42.89 0 0 1 83 172.19c-14.39 3.45-28.66 3.2-42.74-1.59a37.73 37.73 0 0 1-15.61-9.95 21.93 21.93 0 0 1-6-13.76c-.22-2.87-.3-5.74-.31-8.62q-.07-23.49-.18-47v-1.2c-.06-2-.06-2-2-2.08l-7.19-.24c-1.88-.07-1.95-.15-2.16-2.05-.06-.56-.06-1.12-.08-1.68-.27-6.79-.25-13.58-.14-20.38 0-2.3 0-2.32 2.19-2.3q16.55.18 33.1.38c2.1 0 2.16.08 2.27 2.15.28 5.26.48 10.53.51 15.81q.14 30.09.32 60.18a36.42 36.42 0 0 0 1.05 10 13.18 13.18 0 0 0 8.79 9.38 29.13 29.13 0 0 0 15.82 1.21c6.36-1.45 11.04-4.69 11.83-13.29a185.9 185.9 0 0 0 .23-23.72c-.21-6.15-.32-12.3-.17-18.45a31.83 31.83 0 0 1 3-12.49 94.87 94.87 0 0 1 5.26-9.4c3.63-6 7.42-11.95 10.6-18.22 2.36-4.64 4.44-9.38 5.27-14.58a35.55 35.55 0 0 0 .34-5.73c0-2.4-.1-4.8-.16-7.19 0-.87-.78-1.88.5-2.49ZM394.43 122.35V63.6c0-3.17-.41-2.88 2.75-2.89h72.44c2.82 0 2.66-.44 2.66 2.73v17c0 2.2 0 2.21-2.25 2.22h-45.8c-1.54.06-1.57.07-1.57 1.9v24.69c0 2.1 0 2.12 2.09 2.13h34.3c1 0 1.61.15 1.6 1.42q-.09 9.11 0 18.22c0 1.39-.65 1.53-1.76 1.52h-34.06c-2.14 0-2.16 0-2.16 2v25.42c0 1.9 0 1.92 2 1.92h44.61c3.2 0 3-.54 3 2.88v16.78c0 2.32 0 2.33-2.37 2.33h-64c-3.28 0-6.56-.05-9.84 0-1.28 0-1.64-.45-1.62-1.67.05-4.23 0-8.47 0-12.71ZM520.49 185.31a64.51 64.51 0 0 1-37.66-13c-3.62-2.74-3.58-2.81-1.21-6.68q2.81-4.6 5.63-9.19c2.66-4.3 6.66-5.34 11.09-2.82 2.15 1.22 4.2 2.62 6.33 3.88 3.74 2.19 7.61 4.11 12 4.71a27.84 27.84 0 0 0 12.11-.57c4.88-1.48 7.89-4.63 8.76-9.73a19.45 19.45 0 0 0 .16-5.49 9.91 9.91 0 0 0-3.07-6.08 23.22 23.22 0 0 0-8-4.73c-4.54-1.77-9.3-2.86-13.93-4.34a71.94 71.94 0 0 1-12-4.85c-9.6-5.14-14.87-13.22-16.27-24a37.69 37.69 0 0 1 2.14-19.53 35.08 35.08 0 0 1 23.12-21.09c17.63-5.32 34.28-2.62 49.49 7.94 3.52 2.45 3.44 2.58 1.44 6.35-1.57 3-3.12 5.94-4.72 8.89-2.74 5-6 6-11.11 3.22a76.51 76.51 0 0 0-9.41-4.71 27 27 0 0 0-15.08-1.18c-6.64 1.32-10.32 6.12-10 12.86a8.44 8.44 0 0 0 2.56 5.76 20.94 20.94 0 0 0 5.94 4 80.83 80.83 0 0 0 10.34 3.76 110.17 110.17 0 0 1 18.48 7.31c7.72 4.09 13.23 10.18 15.34 18.7 4.43 17.83-2.5 43-30.1 49.32a65.09 65.09 0 0 1-12.37 1.29ZM630.25 185.26a61.58 61.58 0 0 1-24.69-4.71c-12-5.18-21.14-13.53-26.87-25.21-8.94-18.2-10.33-37.21-3.59-56.29 7.46-21.15 22.9-33.73 44.78-38.29a65.1 65.1 0 0 1 37.69 2.88 49.66 49.66 0 0 1 16.85 10.76c1.7 1.66 1.28 1.53.28 2.91-2.69 3.67-5.37 7.36-8.07 11a12.88 12.88 0 0 1-1.41 1.69 5.91 5.91 0 0 1-7.22 1.2 41 41 0 0 1-4.71-2.85c-6.36-4.34-13.48-5.62-21-5.31a33 33 0 0 0-11.42 2.42A30.44 30.44 0 0 0 604 102a50.07 50.07 0 0 0 .44 42c3.86 8.49 10.33 14.56 19.57 16.65 11 2.49 21.47 1.37 30.4-6.45a9.82 9.82 0 0 1 2.37-1.61 5 5 0 0 1 6.18 1c3.58 3.76 7 7.66 10.56 11.46.93 1 .21 1.55-.33 2.21a45.91 45.91 0 0 1-19 13.82c-7.61 3.08-15.66 4.09-23.94 4.18Z"/><path class="cls-1" d="M103.11 41.7a38.21 38.21 0 0 1-4.25 16.95c-2.45 5.11-5.31 10-8.07 15a143.17 143.17 0 0 0-7.61 14.91c-2.36 5.74-3.94 11.65-3.56 17.93.11 1.91.36 3.81.54 5.71a15.43 15.43 0 0 1 .09 1.92c0 .77.18 1.74-.73 2.1s-1.68-.22-2.31-.86a3.86 3.86 0 0 1-.7-1c-2.14-4.31-5.05-8.13-7.58-12.2-2-3.26-4-6.54-5.67-10a33.52 33.52 0 0 1-1.64-26.49 84.42 84.42 0 0 1 6.28-14c2.82-5.1 5.71-10.16 8.5-15.27A64.62 64.62 0 0 0 82 23.24a41 41 0 0 0 .75-18.5 7.3 7.3 0 0 1 .21-4c.31-.81.75-.86 1.48-.55a3 3 0 0 1 1.32 1.33A172.89 172.89 0 0 1 99.09 25a38.94 38.94 0 0 1 4.02 16.7ZM126.63 175.47a26.36 26.36 0 0 1-4.87 4.76c-7.69 6.25-16.55 10.19-26 12.89a121.13 121.13 0 0 1-43.66 4 92.28 92.28 0 0 1-31.21-7.79c-7.47-3.44-14.34-7.74-19.89-13.89-.17-.17-.36-.33-.51-.51s-.57-.6-.42-1 .64-.37 1-.42c2.14-.27 4.31-.4 6.42-.81 3.44-.67 6.87-1.47 10.28-2.3a10.19 10.19 0 0 1 9.19 1.9 58.75 58.75 0 0 0 29.58 11.41 62.23 62.23 0 0 0 33.25-4.89 43 43 0 0 0 10.38-6.37 6.48 6.48 0 0 1 5.94-1.53c5.49 1.06 11 1.84 16.48 3.06a11.44 11.44 0 0 1 4.04 1.49ZM107.34 34.89c-.76.71-.16 1.69-.49 2.49-.48-.76-.28-1.65-.49-2.46-.09-.32-.5-.81 0-1 .7-.19.89.41.98.97ZM350.24 136.49a2.06 2.06 0 0 1 .39 1.5c0 .28 0 .67-.41.62a.65.65 0 0 1-.54-.64c.69-.3.32-.97.56-1.48Z"/></g></g></svg>
