<svg xmlns="http://www.w3.org/2000/svg" width="569" height="430" viewBox="0 0 569 430"><defs><style>.cls-1{fill:#3c8aac}.cls-11,.cls-13,.cls-14,.cls-15,.cls-19,.cls-2,.cls-8{fill:none}.cls-6{fill:#f8efe5}.cls-10,.cls-7{fill:#1b1b1b}.cls-10,.cls-11,.cls-13,.cls-14,.cls-19,.cls-8{stroke:#1b1b1b}.cls-10,.cls-11,.cls-13,.cls-14,.cls-15,.cls-19,.cls-8{stroke-linecap:round;stroke-linejoin:round}.cls-8{stroke-width:.72px}.cls-9{fill:#ebc7b5}.cls-10,.cls-11,.cls-15{stroke-width:.8px}.cls-13,.cls-14{stroke-width:.78px}.cls-13{isolation:isolate;opacity:.84}.cls-15{stroke:#fff}.cls-19{stroke-width:.93px}</style><clipPath id="clip-path" transform="translate(5.7)"><path class="cls-2" d="M0 0h569v430H0z"/></clipPath><clipPath id="clip-path-2" transform="translate(5.7)"><rect class="cls-2" x="137.23" width="266.85" height="547.79" rx="37.29"/></clipPath><mask id="mask" x="105.49" y="-33.6" width="355.06" height="646" maskUnits="userSpaceOnUse"><g transform="translate(5.7)"><rect class="cls-1" x="138.05" y="-33.6" width="265.2" height="634.01" rx="32.79" id="mask0_2708_4636" data-name="mask0 2708 4636"/></g></mask></defs><g id="Layer_2" data-name="Layer 2"><g style="clip-path:url(#clip-path)" id="Layer_1-2" data-name="Layer 1"><g style="clip-path:url(#clip-path-2)"><rect class="cls-1" x="143.76" width="265.2" height="547.79" rx="32.79"/><g style="mask:url(#mask)"><path class="cls-6" d="M369.2 426.19c14.1-29.48 45.89-50.59 81.09-30.84S424.23 598.5 356.4 610.47s-95.91-35.09-125.31-48.17c-53.94-24-58.39-95.6-14.94-111.62s78 14.53 103.23 19.42 35.71-14.43 49.82-43.91Z"/><path class="cls-7" d="M159.36 397.08c.63 9.93-5.28 25-26.69 26.69s-39.2-33.6-16.85-45.62c26.07-14.01 42.49 2.64 43.54 18.93Z"/><path class="cls-6" d="M438.85 302.68c.63 9.93-9.66 18.13-18.93 22.65-29.49 9-52.87-33.48-26.05-46s44.34 13.43 44.98 23.35Z"/></g><path class="cls-8" d="m371.94 224.15-9.53-53.57"/><path class="cls-9" d="M367.8 193.06a1.19 1.19 0 1 1-2.34.43l-3.67-19.71a1.19 1.19 0 1 1 2.34-.43Z"/><path class="cls-6" d="M365.42 238.15a5.31 5.31 0 0 0-.54-.71C372.56 188 384.7 173 384.7 173c-7.91 20.86-15.59 50.86-19.12 65.4Z"/><path class="cls-7" d="M370.16 244.21c-.37-40.24.29-75.27.29-75.27 4.39 22.32 2 59.21.62 75.85Z"/><path class="cls-6" d="M374.61 244.61s-.36-55.28-9.5-83.91c0 .01 3.88 40.3 9.5 83.91Z"/><path class="cls-8" d="m370.88 223.13 6.54-61.78"/><path class="cls-1" d="M356.61 108.11c-3.34-3.36-13.53-5.9-13.53-5.9l-6-1.3s.56 11.44.88 11.44 8.2.81 8.2.81l4.22-.78"/><path class="cls-9" d="M258.57 96.8c0 2.24 1.47 3.7 4.12 6.36 2.37 2.36 11.45 9.91 13.25 11.4l.23.19.24-.19c2.92-2.29 17.57-13.84 19.61-15.89a11.74 11.74 0 0 1 7.09-3.42l2.69-.42-.37-4.58h3v16.65l10.49-12.72 1.43-4.11h7.92l-.75 3.74.56.22 6.05 2.36a4 4 0 0 1 .45.15l.19.07c3 1.15 5.18 4.25 7.73 11 3.34 8.89 8.94 27.16 10.48 32.92.63 2.34.42 4.22-.63 5.61-1.35 1.75-4 2.63-8 2.63a60.89 60.89 0 0 1-9.29-1.31c-3.08-.59-6.57-1.24-9.69-1.54l.53.16-1.61 4.78s-9.65.69-13.22 3.32a44.14 44.14 0 0 0-6.42 5.88l-16.87-.06-1.21-1.75a8.62 8.62 0 0 1-1.37-3.25 8.79 8.79 0 0 1 .06-3.54l6.71-32-.73.42c-3.49 2-8 4.63-9.83 5.76a12.35 12.35 0 0 1-6.21 2.18 6.81 6.81 0 0 1-2.74-.58 7 7 0 0 1-2.3-1.62c-1.19-1.35-11.75-13.27-14.46-16s-5.2-2.61-5.22-2.61c5.82-.48 7.91-4.45 8.09-10.21Zm79.21 40.32-5-11.36-3.93 11.44Z"/><path class="cls-6" d="M317.84 147.47a5.67 5.67 0 0 0 1.55-1.49s.65-2.78-.78-4.67-4.71-3-4.71-3l-8.35 3.16-4.85 2.12-4 3.88-3.16 4.8.34 1.12.63.16s1.05-.11 1.05-.37a51.23 51.23 0 0 1 4.07-3.74l3.32-2.9-.83 3.31a1.66 1.66 0 0 0 0 .8 1.62 1.62 0 0 0 .39.7 15.55 15.55 0 0 0 3.09 1.68l3.57 1.17h1.93a8.24 8.24 0 0 0 1.08-2.39 6.51 6.51 0 0 0-.67-2 30.37 30.37 0 0 0 6.37-2.38ZM306.85 171.75c5-11 9.1-14.37 17.63-14.37h11.22c13.13 0 21.59-3.29 26.32-10.47-5.17 13.47-14.34 28.8-20.25 38.7l-.19.31a16.69 16.69 0 0 1-14.29 8.1l-37.07-.18c7.33-2.84 11.93-11.69 16.63-22.09ZM316.7 96.84l-8.29 10V96.41ZM257.81 101.54s-1.55 5.51-6.69 5.47-6.31-1.09-6.31-1.09l-3.85-3.09-1.31-.7-1.77-.59-.35-1.58-2.62-.96-1.13-.83-7.68-7.69s-1.43-.87.2-.87a7.24 7.24 0 0 1 1.8.09l4.21 3.37-.83-3.48 2.25.44 2 3.82-.14-1.38 1.48-.42 1.12 1.22.71 2.15h1.38l.59-.9 1.09.56.3.42s6.67.62 8.28 0 1.82-1.91 1.61-2.57-2-4.2-2.24-4.92-.45-1.9.09-2.39a1.33 1.33 0 0 1 1.12-.34l4.03 5.72a49.21 49.21 0 0 1 3 4.66c.17.62.7 4.24-.34 5.88ZM199.92 149.12c0 4.55 4.59 8.25 10.25 8.25s10.27-3.7 10.27-8.25Z"/><path class="cls-6" d="M210.17 157.37h2.95a3.54 3.54 0 0 1 2.48 1 3.35 3.35 0 0 1 .76 1.14 3.41 3.41 0 0 1 .27 1.34H203.7a3.52 3.52 0 0 1 3.51-3.51Z"/><path class="cls-6" d="m210.16 157.37 1.58.46c1.77.49 4.32 1.12 3.86.58h-.05a2.08 2.08 0 0 1-.39-.53 1.1 1.1 0 0 1-.09-.51.92.92 0 0 1 .16-.48 4.16 4.16 0 0 1 1.21-1.19 7.09 7.09 0 0 1 .64-.44l.2-.15a7.05 7.05 0 0 1 1-.94l-4.87-.86-2.87 3.6Z"/><path class="cls-6" d="M202 154.1a6.63 6.63 0 0 1 1 .91l.25.2q.33.19.6.39a4.3 4.3 0 0 1 1.23 1.21 1 1 0 0 1 .16.49 1.1 1.1 0 0 1-.09.51 2.11 2.11 0 0 1-.37.53c-.46.57 2.09-.08 3.86-.57l1.57-.46-.42-.54-2.88-3.59Z"/><path class="cls-7" d="M199.92 148.12h20.51v1h-20.51ZM205.17 157.84h10a1.06 1.06 0 0 1 .07-1h-10.12a1.08 1.08 0 0 1 .15.5 1 1 0 0 1-.1.5Z"/><path class="cls-10" d="M213.91 249.36h9.79l-1.53-.6-5.52.07-2.58-.07v-3.35l2.57-3.06v-78.5h-2.72v84.05H208l-1.19 1.46Z"/><path class="cls-6" d="M245.6 245.48a5.57 5.57 0 0 0-3.28.28l-.22.05h-.14a11.65 11.65 0 0 1-1.32-.05c-.95-.06-1.91-.16-2.86-.24a38.57 38.57 0 0 0-8.11 0c-5.05.7-10.46 0-15.62-.11v-1.59a2.53 2.53 0 0 1 1.22-2.61c1.36-.94 3-1.25 7.49-2.22a20.62 20.62 0 0 0 8.29-4.36l.29-2.85 1-.63h5.31v3.27h4.87l2.9.18 1.42 4.49-.41 4.59ZM294.39 179.08h-21.26l-1.91 1.7s-4 6.93-3.63 6.93h13.64a22.88 22.88 0 0 0 5.79-1.56 55.75 55.75 0 0 0 5.35-4.28Z"/><path class="cls-9" d="M191.7 159.76v4.11h39a9.44 9.44 0 0 1 .29-4.11Z"/><path class="cls-7" d="m237.42 232.19.19 2.24 4.18-.41s.56-1.83-.64-1.83Z"/><path class="cls-6" d="M362.53 226.38q.06 2.81.27 5.61.27 3.75.75 7.51c0 .25.07.5.1.75.41 3 .94 5.94 1.58 8.92h12.12q1-4.48 1.57-8.92c0-.25.08-.5.11-.75q.5-3.76.75-7.51.19-2.81.27-5.61a118.82 118.82 0 0 0-2.25-26.07c-.14-.75-.29-1.49-.46-2.21h-12.11c-.16.74-.31 1.48-.45 2.21a118.82 118.82 0 0 0-2.25 26.07Z"/><path class="cls-7" d="M362.8 232q.27 3.75.75 7.51c0 .25.07.5.1.75h15.27c0-.25.08-.5.11-.75.33-2.5.58-5 .75-7.51ZM364.78 200.31h13c-.14-.75-.29-1.49-.46-2.21h-12.08c-.16.73-.32 1.47-.46 2.21Z"/><path class="cls-9" d="M375.56 166a1.4 1.4 0 1 1 2.78.29l-2.48 23.42a1.4 1.4 0 1 1-2.78-.29Z"/><path class="cls-1" d="M235.04 74.77a5.82 5.82 0 1 1 5.82-5.77 5.82 5.82 0 0 1-5.82 5.77Z"/><path class="cls-11" d="M245.95 65.56a3.9 3.9 0 1 1 3.9-3.9 3.9 3.9 0 0 1-3.9 3.9Z"/><path class="cls-7" d="M229.22 58.1a1.95 1.95 0 1 1 1.95-1.94 1.94 1.94 0 0 1-1.95 1.94Z"/><path d="M230.16 77.19a11.74 11.74 0 1 1 11.75-11.74 11.76 11.76 0 0 1-11.75 11.74Z" transform="translate(5.7)" style="stroke-width:.72px;stroke-linecap:round;stroke-linejoin:round;stroke:#1b1b1b;fill:none"/><path class="cls-9" d="M229.33 76.46a3.15 3.15 0 1 1 3.15-3.15 3.15 3.15 0 0 1-3.15 3.15Z"/><path class="cls-6" d="m312.53 98.48-4.15-2.07V86h-1.89s-2.31-3.43-2.31-3.67-1.87-4.27-2.06-5.4a24.9 24.9 0 0 1-.55-5.68c.16-2 .19-2.34.19-2.34l-.75-3.37.77-5.79-1.81-1.23s-1.94-2-1.94-4.06.64-4.28 1.57-5.22a12.56 12.56 0 0 1 10-3.2c5.6.59 12.1 5.36 12.1 5.36l1.31-.37s4.2.78 6.31 4.14 1.5 12.34 1.5 12.34l-.42 1.66v1l-.34 1.44-1.07.12s-.21 3.11-1.71 4.42-1.33 1.54-1.33 1.54v12.38h-5.65l-1.43 4.11-6.34 7.31-.86-1.9Z"/><path class="cls-11" d="M285.16 194.41h-20.37M350.39 155a46.42 46.42 0 0 1-14.69 2h-11.22c-8.23 0-12.73 3-18 14.58-2.79 6.17-5.68 12.23-9.36 16.55M340.61 101.48c23.61 3.57 27.75 22.92 24.71 36.45"/><path class="cls-11" d="M348.47 110a21 21 0 0 1 4.83 3.21c5.31 4.71 7.11 11.92 6.41 18.86-1.21 12.22-7.11 18.7-25.09 18.7h-11.24c-8.23 0-17.62 4.11-22.84 15.71-5.64 12.55-8.88 21.22-21.35 21.22h-11.23"/><path class="cls-6" d="m290.56 126.17 2.47-11.8Z"/><path class="cls-11" d="m290.56 126.17 2.47-11.8M305.78 94.54l-.36-4.29h3v16.64l10.49-12.72 1.44-4.11h7.61"/><path class="cls-7" d="M252.49 215.64c2 5.57 3.37 9.21 3.37 9.21 5.76.8 9.72-.84 12-4.82l-4.68-20.88"/><path class="cls-11" d="M252.49 215.64c2 5.57 3.37 9.21 3.37 9.21 5.76.8 9.72-.84 12-4.82l-4.68-20.88M303.37 145.17s-1 3.29-1.28 5a1.39 1.39 0 0 0 .17 1 1.43 1.43 0 0 0 .76.63l1.61.52"/><path class="cls-11" d="M305.58 146.08s-1 3.29-1.28 5a1.4 1.4 0 0 0 .17 1 1.36 1.36 0 0 0 .75.62l1.61.52"/><path class="cls-11" d="M307.76 147.39a42.83 42.83 0 0 0-1.26 4.6 1.41 1.41 0 0 0 .92 1.58l2.13.69a1.44 1.44 0 0 0 1-.06 1.52 1.52 0 0 0 .75-.73l.71-1.46a1.14 1.14 0 0 0 .09-.73 1.2 1.2 0 0 0-.39-.63l-.2-.17a1 1 0 0 0-.71-.22 1 1 0 0 0-.66.34l-.75.83"/><path class="cls-13" d="M242.13 95.57a65.22 65.22 0 0 0 7.83 0 2.29 2.29 0 0 0 1.71-1 2.69 2.69 0 0 0 .41-1.32 2.62 2.62 0 0 0-.34-1.34 25.12 25.12 0 0 1-2.15-4.81 1.56 1.56 0 0 1 .68-1.77.83.83 0 0 1 .65-.13.85.85 0 0 1 .56.36l6.22 9.11a9.29 9.29 0 0 1 .88 2.8c0 7-4 9.35-8.09 9.51-1.6.06 1.17 0 0 0-1.4 0-5.18-.51-6.24-1.37l-2.89-2.37a3.09 3.09 0 0 1-.83-1.07 3 3 0 0 1-.29-1.32V95.1a.58.58 0 0 1 .59-.56h0a1.29 1.29 0 0 1 .84.28 1.38 1.38 0 0 1 .48.75c.32 1.77.56 3.54.71 5.33 0 0 2.24 1.76 3 2.47M234.26 98.29l-.46-.09a2.36 2.36 0 0 1-1.19-.62c-2.15-2.12-5.31-5.72-6.5-7.11a.46.46 0 0 1-.12-.23.51.51 0 0 1 .11-.49.43.43 0 0 1 .2-.15 1.83 1.83 0 0 1 .92-.18 1.89 1.89 0 0 1 .89.27 31.16 31.16 0 0 1 4.15 3.31"/><path class="cls-14" d="m237.53 100-1.52-.28a1.86 1.86 0 0 1-.84-.39 1.74 1.74 0 0 1-.54-.74l-3.11-8.23a.59.59 0 0 1 0-.27.62.62 0 0 1 .11-.25.58.58 0 0 1 .21-.17.49.49 0 0 1 .27 0h.6a1.29 1.29 0 0 1 .69.17 1.41 1.41 0 0 1 .5.5 28.09 28.09 0 0 1 2.54 5.66M240.22 102.31l-1.29-.41a1.81 1.81 0 0 1-.76-.46 1.71 1.71 0 0 1-.44-.76l-2.18-7.92a.57.57 0 0 1 0-.26.7.7 0 0 1 .11-.23.58.58 0 0 1 .46-.21h.58a1.38 1.38 0 0 1 .76.23 1.36 1.36 0 0 1 .5.61c.37 1 1.05 2.82 1.54 4.46l.75 2.47"/><path class="cls-11" d="M278.96 126.92a19.4 19.4 0 0 0 2.46-1.32c.65-.41 5-2.95 6.15-3.64M250.49 107s2.36-.23 5.24 2.62c1.37 1.37 4.74 5.09 7.88 8.6M277.58 115.82s-12.27-10-14.89-12.67-4.12-4.11-4.12-6.36M319.36 146.19a8.7 8.7 0 0 0-2.22 1.61 8.68 8.68 0 0 1-3.24 1.69 8.76 8.76 0 0 1-3.64.23l-1.12 2.37M352.95 140.56c1.5 5.61-1.87 8.22-8.61 8.22-5.25 0-16.29-3.36-23.22-3a5 5 0 0 0-1.76.41M313.9 138.28a25.75 25.75 0 0 1 3.47-.72c5.62-.75 20.41-.44 20.41-.44s-4.74-11.26-9.57-21.08M302.85 147l-3.32 2.21a2.39 2.39 0 0 0-.23.22l-3.27 3.45a1.87 1.87 0 0 1-.94.59 1.83 1.83 0 0 1-1.11 0h-.15a.74.74 0 0 1-.27-.19.77.77 0 0 1-.17-.29.74.74 0 0 1 0-.33.84.84 0 0 1 .12-.31 41.77 41.77 0 0 1 4-5.3c2.25-2.36 3.27-3.27 4.87-3.94 3-1.25 7.12-3.49 11.51-4.75"/><path class="cls-10" d="M304.64 160.08h-38.33a9.73 9.73 0 0 0-8.79 6.53l-23.29 63.71a18.1 18.1 0 0 0 11.61 4.11l25.53-53.9a2.6 2.6 0 0 1 .94-1.06 2.55 2.55 0 0 1 1.37-.4h20.71c3.27-6.12 4.3-8.46 6.15-12.55a24.72 24.72 0 0 1 4.1-6.44Z"/><path class="cls-15" d="m254.46 217.26 10.4-22"/><path class="cls-11" d="M279.7 137.45a49.1 49.1 0 0 0 8.69-6.7M235.42 156.06a14.3 14.3 0 0 0-4.5 13.48c1.34 6.92 4.34 14.57 10.49 19.41 5.77 4.54 4.62 3.69 4.62 3.69M277.7 194.41h49.63a17.05 17.05 0 0 0 14.61-8.28c7.16-12 19.4-32.41 23.22-47.53M308.38 97.91V87.72M325.98 90.06V74.72"/><path class="cls-10" d="M243.46 204.37c.45-5.31-.92-10.23-6.68-19.91a42.18 42.18 0 0 0 6.09 5.63c3.19 2.29 3.17 2.54 3.17 2.54l2 7.34-3.56 4.4ZM281.23 194.41c3.56 0 10.24 0 10.24 9s-1.32 45.91-1.32 45.91h3s1.32-38.41 1.32-45.89c0-9 9-9 9-9Z"/><path class="cls-10" d="M279 194.41s4.05 0 2.94 5.34l-12.32 49.61h2.43l12.65-49.18a8.3 8.3 0 0 1 2.88-4.71l-2.37-1.06Z"/><path class="cls-11" d="M166.35 249.36h217.63"/><path d="M315.71 194.41s1.16.05 3.12 0c4.89 0 7.49 7.59 7.49 7.59l15.11 47.32h3.11s-8.93-28.32-12.36-39-3.8-11 5.6-26.82c0 0-3.91 7.84-10.6 9.85-4.96 2.26-11.47 1.06-11.47 1.06Z" transform="translate(5.7)" style="opacity:.83;isolation:isolate;stroke-width:.8px;stroke-linecap:round;stroke-linejoin:round;stroke:#1b1b1b;fill:#1b1b1b"/><path class="cls-6" d="M215.27 241.21c1.36-.93 3-1.24 7.49-2.21a20.62 20.62 0 0 0 8.29-4.36l.29-2.85 1-.64h4.31l.79.42.21 2.85h4.87l2.9.18 1.42 4.49-.41 4.59-.87 2a5.89 5.89 0 0 0-2.29-.08 79.63 79.63 0 0 1-8.52.17h.05a6.76 6.76 0 0 0-3.19.23l-3.19-.06c-2.5 0-5-.17-7.49-.28-2.28-.09-4.54 0-6.82 0v-1.86a2.53 2.53 0 0 1 1.16-2.59Z"/><path class="cls-11" d="M243.55 248.83H215.7a1.83 1.83 0 0 1-1.83-1.82v-1.36h31.46V247a1.68 1.68 0 0 1-.14.7 1.77 1.77 0 0 1-1 1 1.72 1.72 0 0 1-.64.13ZM245.37 245.65c1.94-1.31 2-11.13-.54-11.22h-7.23"/><path class="cls-11" d="M237.61 235.54v-3.33a1.15 1.15 0 0 0-.08-.41.89.89 0 0 0-.23-.34 1.31 1.31 0 0 0-.34-.24 1.18 1.18 0 0 0-.41-.07h-4.26a1 1 0 0 0-.73.3 1 1 0 0 0-.3.73v2.24l-2.82 1.8a27.9 27.9 0 0 1-7.28 3.28l-5.69 1.61a2.38 2.38 0 0 0-1.13.85 2.3 2.3 0 0 0-.43 1.34v2.34M266.94 221.38l.75 2.41a1.32 1.32 0 0 1-.17 1 8.41 8.41 0 0 1-3.32 3.32M257.2 225l.45 1.32"/><path class="cls-7" d="M307.75 140.48a18.49 18.49 0 0 0 4.32-1.84l8.3-32.94c2.68-11.41 11.71-10 14.17-9.17l-.44-.14-5.4-2.14a3.49 3.49 0 0 0-1.39-.25c-4.55.07-7.69 2.67-9.76 9.18-.85 2.52-5.85 22.39-9.8 37.3Z"/><path d="M328.45 96.41a9.77 9.77 0 0 1-.94-.38Z" transform="translate(5.7)" style="fill:#39b54a"/><path class="cls-7" d="M303.37 157.26s.37-1.62 1.26-5a14.3 14.3 0 0 0 3.59 1.61l-.75 2.93ZM298.84 99.91c.91-3.39 1.95-5.29 7.11-5.61v.46c-1.59.79-3 2.47-3.7 5.7l-11 57.07-2.93-.29s9.38-53.24 10.52-57.33Z"/><path class="cls-11" d="m298.75 150.31-1.54 6.95M308.38 106.89l-8.25 37.21M319.35 146.19s1.32-6.76-5.45-7.91M335.07 137.12l6.36.1"/><path class="cls-14" d="M240.22 95.43h-1.14"/><path class="cls-7" d="m250.77 203 13-33.23 8.09-5.61-1.78-2.5-17.45-2.29c-6.69-.89-15 3.93-9.6 23.13 1.74 6.19 2.7 10 5 16.92"/><path class="cls-11" d="m250.77 203 13-33.23 8.09-5.61-1.78-2.5-17.45-2.29c-6.69-.89-15 3.93-9.6 23.13 1.74 6.19 2.7 10 5 16.92"/><path class="cls-15" d="M266.81 160.11h-.5a9.71 9.71 0 0 0-8.79 6.51l-15.93 41.51"/><path d="M298.93 160.08h-65.79a2.52 2.52 0 0 1-2.28-1.47L215 123.51a1.7 1.7 0 0 1-.14-.8 1.53 1.53 0 0 1 .25-.78 1.64 1.64 0 0 1 .6-.57 1.67 1.67 0 0 1 .79-.22l48-.67a2.81 2.81 0 0 1 1.56.45 2.85 2.85 0 0 1 1.06 1.22l15.73 35.12h18.49Z" transform="translate(5.7)" style="stroke-width:.8px;stroke-linecap:round;stroke-linejoin:round;stroke:#1b1b1b;fill:#f8efe5"/><path class="cls-11" d="M308.98 74a4.31 4.31 0 0 1-2.65.67c-.71 0-.91-.45-.9-.91a43.68 43.68 0 0 1 .66-6.66M305.42 64.7a3.12 3.12 0 0 0-1.7-.34 3.16 3.16 0 0 0-1.62.62"/><path class="cls-9" d="M327.8 67.64a6 6 0 0 0-.11-1.12v-1.18l6.7 6.36a.41.41 0 0 1 .11.28.42.42 0 0 1-.11.29l-.57.59a.44.44 0 0 1-.29.11.39.39 0 0 1-.28-.11l-5.47-5.21s.02 0 .02-.01ZM319.6 57.6l4.66 4.49a2 2 0 0 0-.7.44 2 2 0 0 0-.45.71l-4.63-4.45-1.34-2.42Z"/><path class="cls-7" d="M333.25 72.88a.45.45 0 0 0 .29.12.42.42 0 0 0 .28-.12l.57-.59a.38.38 0 0 0 .09-.13.41.41 0 0 0 0-.16.4.4 0 0 0 0-.15.38.38 0 0 0-.09-.13l-2.56-2.42a.37.37 0 0 1 .06.25.38.38 0 0 1-.11.23l-.57.58a.38.38 0 0 1-.29.12.38.38 0 0 1-.28-.12ZM317.14 56.37l1.33 2.42 1.13-1.18Z"/><path class="cls-11" d="M305.26 53.94A15.32 15.32 0 0 0 301 65.59a20.17 20.17 0 0 1 .75 3.36 20.73 20.73 0 0 0 .58 8.52 35.9 35.9 0 0 0 3.31 7.76 2.06 2.06 0 0 0 .77.78 2.14 2.14 0 0 0 1.05.28h4.15a5.37 5.37 0 0 0 3.12-1c2.53-1.81 7.64-5.58 8.48-7a11.7 11.7 0 0 0 1.15-4.91M324.44 71.3a3.14 3.14 0 0 0 2.44-1.45c.71-.83 1.26-2.13 1-4.49-.61-5.07-5.4-4.24-5.4-.28"/><path class="cls-11" d="M322.7 63.68s-3.72 2.25-7.46-5.12M313.61 57.06s-7.06-6.14-11.84-1.36M308.7 64.65a10.17 10.17 0 0 1 5-.09 13.45 13.45 0 0 1 2.75 2.31M326.93 76.27s2.83-1 1.89-4.6M330.79 73.52a5.68 5.68 0 0 0-.7-2M322.46 50.94a9.33 9.33 0 0 1 8.4 9.2v7.36"/><path class="cls-11" d="M323.49 52.88a31.23 31.23 0 0 0-8.92-5.67c-5-2-12-1.72-15.11 2.24s-.71 7.93.78 9.41M306.9 77.86a15.17 15.17 0 0 0 4.55-.23c.59 0 0 2.18-2 2.48a3.4 3.4 0 0 1-1.58-.19"/><path class="cls-7" d="M311.04 68.44c-.11-.55.09-1 .45-1.13s.75.3.87.84-.08 1-.44 1.13-.76-.28-.88-.84ZM303.13 68.73c-.12-.55.08-1 .45-1.13s.75.3.87.84-.08 1.06-.45 1.13-.75-.3-.87-.84Z"/><path class="cls-11" d="m230.42 235 3.81 4.32M227.86 236.66l2.8 3.43M225.77 238.06l2 2.64"/><path class="cls-9" d="M250.21 144.91c-2.87-2.4-3.85-6-2.18-8s5.36-1.67 8.23.72 3.85 6 2.18 8-5.35 1.67-8.23-.72ZM229.75 132h7.09l-3.2-7.08h-7.09Z"/><path class="cls-7" d="M227.09 126h7.09l-.53-1.13h-7.09Z"/><path class="cls-6" d="M198.93 170.25s.56 14.9-.37 26.27c-.75 9.35-1.65 18.83-5.44 27.46a42.07 42.07 0 0 0-5.36-9.11c3.54 1.12 3.07-5.11 3.43-7.22l2-11.05c1.45-7.44 1-7 2.72-14.33.94-3.83 3.02-12.02 3.02-12.02Z"/><path class="cls-9" d="M190.56 231c-1.38-21.65-1.53-38.31-8.06-59.15 6.87 9.37 9.25 22.82 10.93 34s-.64 11.17-.83 22.48l-1.44-2.69"/><path class="cls-6" d="M194.55 229.56a10.65 10.65 0 0 0-2.24.41.74.74 0 0 1 0-.14c3.59-10.17 4.67-17.17 14.65-28.52-5.21 9.72-8.2 19.12-10.89 28.15Z"/><path class="cls-6" d="M191.7 230.15c-1.19.09-2.39.16-3.58.24a25.8 25.8 0 0 1-.27-3.51 111.13 111.13 0 0 0-4.77-35.78 53 53 0 0 1 10.31 28.8 58.15 58.15 0 0 1-.11 9.83 10.82 10.82 0 0 0-1.58.42Z"/><path class="cls-9" d="M195.18 229.52h-.63a10.89 10.89 0 0 0-2.83.59l-1.16.08c.77-4.41 1.7-8.79 2.74-13.14q2.35-10 5.61-19.72 1.64-4.87 3.48-9.67c.75-2 3.65-8.91 3.65-8.91s-4.62 20.48-6 28.52a176.38 176.38 0 0 1-4.86 22.25Z"/><path class="cls-9" d="M193.33 229.72a12.58 12.58 0 0 0-1.6.43c-1 .08-2.06.15-3.1.21-3.08-13.16-8.89-25.81-14.67-38.3a71.1 71.1 0 0 1 19.37 37.66Z"/><path class="cls-6" d="M180.44 220.9a11.71 11.71 0 0 0 23.42 0Z"/><path class="cls-7" d="M180.44 219.44h23.42v1.46h-23.42Z"/><path class="cls-19" d="M204.51 225.84h-24.08M199.4 225.84l7.69 23.33M185.54 225.84l-7.75 23.52"/><path class="cls-6" d="M247.99 246.4v-3l.94-1.64 2.66-1.75 3.68-9.15-.6-3.2.8-1.32 6.82.37 1.29.71.42 1.07 1-1 2.74-3.21-.23-1.65a2.11 2.11 0 0 1 1.69 1.27c.68 1.27 2.22 3.47 2.22 6.2s-7.72 12.8-7.72 12.8l-2.69 3.49Z"/><path class="cls-11" d="m264.53 230.22-.7-2.26a1.67 1.67 0 0 0-.58-.85 1.78 1.78 0 0 0-1-.37l-5.83-.37a1.67 1.67 0 0 0-.82.15 1.7 1.7 0 0 0-.65.51 1.76 1.76 0 0 0-.32 1.49l.6 2.37-3.08 8.18a3 3 0 0 1-1.31 1.57l-1.94 1.15a1.9 1.9 0 0 0-.68.7 1.94 1.94 0 0 0-.25.94v3h13s8.44-10.54 10.3-15.24a6.88 6.88 0 0 0-.46-3.88 46.73 46.73 0 0 0-2.15-4.16s-.19-.42-1.21-.42c0 0 1.25 2.62-3.29 5.38"/><path class="cls-11" d="M248 246.4v2.19a.72.72 0 0 0 .06.29.81.81 0 0 0 .42.42.72.72 0 0 0 .29.06h13.24a1.39 1.39 0 0 0 1.17-.62l9.69-14.2a2.44 2.44 0 0 0 .41-1 2.6 2.6 0 0 0-.06-1.11 13.4 13.4 0 0 0-1.57-2.46M255.04 232.07l6.64.2M253.82 235.07l6.54.21M252.5 238.17l5.95.13M248.59 242.35h9.11"/></g><rect x="143.51" y=".58" width="265.69" height="546.64" rx="36.71" style="stroke-width:1.16px;stroke:#1b1b1b;fill:none"/><path d="M-5 429.89h520" transform="translate(5.7)" style="stroke-width:1.4px;stroke-linecap:round;stroke-linejoin:round;stroke:#1b1b1b;fill:none"/></g></g></svg>
