<svg xmlns="http://www.w3.org/2000/svg" width="55" height="55" viewBox="0 0 600 600"><g data-name="Layer 2"><g data-name="Layer 1"><circle cx="300" cy="300" r="300" style="fill:#fff"/><path d="M335.72 431.24c-12.78-2-25.63-3.72-38.33-6.22a221.53 221.53 0 0 1-24.5-6.83c-1.49-.47-3.14-2.74-3.38-4.37-.88-5.92-1.23-11.93-1.68-17.9a6.18 6.18 0 0 0-4-5.08V414c-5-10.48-3.61-21.54-4-33.08 1.62.73 2.75 1.19 3.83 1.73 19.88 10 41.39 14.38 63.1 17.72 35.41 5.43 71.05 8.67 106.9 7.22 23-.94 45.76-4.15 67-13.94a88.13 88.13 0 0 0 13.92-8.65 6.7 6.7 0 0 0 2.56-4.88c-.24-5.43-1.1-10.84-1.76-16.61-22.1 5.58-44.36 6.07-66.58 6.83A849.26 849.26 0 0 1 336.12 367c-18.49-1.8-37.12-4-55.12-8.43-21.35-5.21-18.68-3.74-20.68-23.35-4.71-46.26-8.4-92.62-12.14-139-1.45-18-2.08-36.16-2.78-54.25-.46-11.94 5-17.91 17-18.35a207.48 207.48 0 0 1 24.91 1c48.46 4.16 96.45 11.2 143.25 24.89 9.85 2.87 19.53 6.32 29.66 8.94-2-1.08-4-2.28-6.05-3.22-26.69-12-54.73-19.76-83.46-24.66-31.94-5.45-64.05-9.92-96.1-14.72-20.57-3.09-39.76 2.68-56.93 12.64-22.52 13.07-43.79 28.31-65.39 42.91-9.78 6.61-19.12 13.85-28.5 21-1.41 1.08-2 3.3-3.22 5.58h-8.69A67.47 67.47 0 0 1 143 228.9c4.67 9.14 8.48 18.74 12.34 28.27 4.6 11.38 8.61 23 13.32 34.33 1.85 4.44 4.89 8.38 8.08 12.16-9.49-37.16-20.91-73.41-44.92-105.78 27.32-17.6 54.64-35.27 82.06-52.76a54.14 54.14 0 0 1 10.89-4.88c5.48-2 7-1.21 7.93 4.42 3.92 23.23 8.49 46.4 11.28 69.77 6.88 57.67 6.73 115.66 7 173.62l-1.31.22c-1.11-7.06-2.7-14.08-3.25-21.18-2.86-37.1-5-74.26-8.31-111.31-2.45-27.08-6.34-54-9.82-81-.5-3.89-2-7.69-3.51-11.39-2.15-5.44-4.24-6.6-9.65-4.1-12.21 5.63-24.41 11.35-36.16 17.85-11.59 6.41-22.62 13.82-34.5 21.17 13.72 15.38 22.32 32.32 28.43 50.52 4.81 14.32 9.09 28.81 13.57 43.24 6.64 21.35 14.6 42.1 29 59.64 5.14 6.26 11.07 11.87 16.41 17.54-15-.45-35.39-9.25-46.87-24.79-13.49-18.26-32.36-22.52-52.41-25.3-20.9-2.9-41.86-.92-62.77.59a11.48 11.48 0 0 1-4.82-.43l88.49-28.7c-8.43-19.3-14.25-38.45-26.66-54.47-9.85-12.73-22.82-14.83-37.6-11.39-20.24 4.71-38.89 13.45-57.48 22.35a11 11 0 0 1-4.78 1.41c9.77-7.23 19.41-14.63 29.31-21.67q72.72-51.75 145.59-103.28c13.92-9.81 28.67-18.72 46.08-20.2a183.23 183.23 0 0 1 34.33.63 632.86 632.86 0 0 1 154.07 35.61c12.12 4.48 23.75 10.34 35.37 16 3.76 1.84 6.78 5.19 10.18 7.79a8.22 8.22 0 0 0 3.29 1.89c23.66 3.72 37.52 18.86 45.15 40.39a81.18 81.18 0 0 1 4.44 23.71c.69 16.38.19 32.82.19 49.59h-37.13V227h18.41c3.58-17.72-9.79-42.44-25-46.5q5.37 19.83 10.74 39.5c-4.66 1.54-6.7.11-8.14-4-3.26-9.37-7.06-18.56-10.74-27.78-3.19-8-9-13.13-17-16.44-21.52-9-44.05-14.41-66.66-19.54-34.93-7.92-70.14-14.2-105.83-17.41a143.26 143.26 0 0 0-18.87-.49 17.59 17.59 0 0 0-14.88 8.21c2.78.6 5.09 1.12 7.41 1.6 30.75 6.33 51.49 30.07 52.6 61.38.67 19 .12 38.09.12 57.52h-45.16V203h22.26c2.49-18.6-13-46.16-38.88-48.77 0 8.43-.59 16.89.1 25.24q5 60.26 10.64 120.45c1.08 11.59 3.19 23.09 4.53 34.66.52 4.49 2.75 7.14 6.9 8 11.72 2.4 23.4 5.33 35.25 6.74 50.55 6 101.34 7.46 152.2 6 13.94-.41 27.86-2.23 41.74-3.89 4.47-.54 8.76-2.66 14.21-4.4.94 4.46 2.91 9.56 3 14.68.18 23-.11 45.94-.42 68.91-.09 6.83-.77 13.64-1.25 20.46-1.56 22-13 34.8-34.94 37.38-21.19 2.42-42.47 4.54-63.74 5.54-34.1 1.66-68.25 2.78-102.38 3.17-17.13.19-34.34-1.64-50.82-6.89-6.25-2-12-5.47-17.95-8.45a13.42 13.42 0 0 1-5.05-4.52c47.47 7.17 94.68 9.1 142 7.89 33.32-.85 66.56-3.07 99.19-10.68 14.57-3.4 21.18-10.33 22.52-25.34 1-11.55 1.07-23.2 1.56-35.05l-24.42 13.08c-.25-.47-.51-.93-.76-1.39 4-2.2 8.13-4.28 12.09-6.61 10.73-6.31 13.19-12.12 10.83-24.5-9 3.84-18.18 7.66-27.23 11.7-1 .44-1.76 2.16-2 3.4-1.23 6.69-2.26 13.41-3.24 19.4-38.71 14.29-77.87 11.39-117.13 7.32-4.74-.49-7.86-2-9.74-6.72a155.15 155.15 0 0 0-8.16-16.57 6.9 6.9 0 0 0-3.83-3.31c-20.93-4.8-41.89-9.41-62.86-14-1.42-.32-2.91-.37-5.1-.63.36 6.37.56 12.31 1.18 18.2.09.86 2.06 1.87 3.33 2.21q28.62 7.71 57.3 15.24Z" style="fill:#373737"/></g></g></svg>
